<svg xmlns="http://www.w3.org/2000/svg" xmlns:xlink="http://www.w3.org/1999/xlink" width="48" zoomAndPan="magnify" viewBox="0 0 36 36.000001" height="48" preserveAspectRatio="xMidYMid meet" version="1.0"><defs><clipPath id="b573fa0af1"><path d="M 18 1.21875 L 20 1.21875 L 20 4 L 18 4 Z M 18 1.21875 " clip-rule="nonzero"/></clipPath><clipPath id="aa4c47bdfa"><path d="M 7.910156 9 L 10 9 L 10 11 L 7.910156 11 Z M 7.910156 9 " clip-rule="nonzero"/></clipPath><clipPath id="04a2c797cf"><path d="M 14 1.21875 L 16 1.21875 L 16 4 L 14 4 Z M 14 1.21875 " clip-rule="nonzero"/></clipPath><clipPath id="9f7f040301"><path d="M 8 14 L 27.613281 14 L 27.613281 32.597656 L 8 32.597656 Z M 8 14 " clip-rule="nonzero"/></clipPath></defs><path fill="#4a5979" d="M 18.183594 15.933594 C 19.207031 16.050781 20.234375 16.136719 21.246094 16.300781 C 22.390625 16.484375 23.304688 17.074219 24.074219 17.953125 C 24.835938 18.832031 25.324219 19.84375 25.652344 20.929688 C 25.839844 21.542969 25.914062 22.210938 25.941406 22.859375 C 25.960938 23.421875 25.890625 23.996094 25.765625 24.542969 C 25.425781 26.023438 24.777344 27.375 23.753906 28.503906 C 22.636719 29.738281 21.328125 30.738281 19.660156 31.097656 C 18.914062 31.261719 18.132812 31.277344 17.371094 31.324219 C 16.441406 31.382812 15.535156 31.1875 14.691406 30.824219 C 13.050781 30.117188 11.609375 29.136719 10.753906 27.488281 C 10.171875 26.359375 9.984375 25.160156 10.050781 23.902344 C 10.058594 23.691406 10.039062 23.472656 10.023438 23.253906 C 9.96875 22.5625 9.816406 21.871094 9.960938 21.179688 C 10.039062 20.828125 10.152344 20.480469 10.304688 20.15625 C 11.054688 18.570312 12.269531 17.507812 13.914062 16.886719 C 14.484375 16.671875 15.054688 16.453125 15.636719 16.296875 C 16.464844 16.078125 17.316406 15.960938 18.183594 15.933594 Z M 17.535156 30.902344 C 18.089844 30.851562 18.71875 30.839844 19.328125 30.726562 C 20.234375 30.566406 21.070312 30.199219 21.832031 29.660156 C 22.65625 29.074219 23.40625 28.410156 23.988281 27.589844 C 24.71875 26.546875 25.207031 25.378906 25.4375 24.117188 C 25.523438 23.648438 25.578125 23.152344 25.507812 22.6875 C 25.375 21.832031 25.292969 20.953125 24.902344 20.160156 C 24.699219 19.742188 24.492188 19.332031 24.261719 18.929688 C 23.917969 18.328125 23.453125 17.832031 22.890625 17.429688 C 22.257812 16.984375 21.535156 16.75 20.789062 16.636719 C 19.960938 16.515625 19.117188 16.488281 18.28125 16.429688 C 17.289062 16.351562 16.3125 16.4375 15.363281 16.753906 C 14.796875 16.941406 14.238281 17.140625 13.691406 17.363281 C 12.535156 17.832031 11.554688 18.523438 10.902344 19.617188 C 10.433594 20.40625 10.128906 21.230469 10.242188 22.179688 C 10.308594 22.753906 10.28125 23.332031 10.3125 23.914062 C 10.324219 24.128906 10.320312 24.359375 10.398438 24.550781 C 10.464844 24.707031 10.527344 24.824219 10.460938 24.992188 C 10.429688 25.0625 10.449219 25.160156 10.460938 25.246094 C 10.597656 26.339844 11.050781 27.304688 11.695312 28.179688 C 12.269531 28.957031 13.070312 29.472656 13.894531 29.941406 C 14.996094 30.574219 16.191406 30.90625 17.535156 30.902344 Z M 17.535156 30.902344 " fill-opacity="1" fill-rule="nonzero"/><path fill="#4a5979" d="M 19.226562 4.863281 C 19.308594 4.921875 19.429688 4.972656 19.519531 5.058594 C 20.128906 5.71875 20.726562 6.390625 21.339844 7.046875 C 21.582031 7.308594 21.796875 7.59375 22.117188 7.792969 C 22.46875 8.007812 22.46875 8.269531 22.203125 8.617188 C 21.753906 9.191406 21.332031 9.78125 20.871094 10.339844 C 20.148438 11.214844 19.390625 12.054688 18.679688 12.933594 C 18.261719 13.453125 17.804688 13.941406 17.542969 14.578125 C 17.371094 15 17.136719 15.035156 16.835938 14.671875 C 16.523438 14.296875 16.226562 13.890625 15.976562 13.46875 C 15.648438 12.910156 15.210938 12.457031 14.746094 12.015625 C 14.019531 11.328125 13.296875 10.632812 12.566406 9.949219 C 12.234375 9.644531 11.871094 9.378906 11.535156 9.085938 C 11.234375 8.816406 11.230469 8.757812 11.476562 8.433594 C 11.964844 7.78125 12.46875 7.148438 12.96875 6.5 C 13.019531 6.429688 13.105469 6.371094 13.121094 6.292969 C 13.195312 5.890625 13.527344 5.835938 13.835938 5.78125 C 14.675781 5.621094 15.519531 5.46875 16.363281 5.335938 C 17.179688 5.203125 17.996094 5.097656 18.816406 4.976562 C 18.933594 4.960938 19.058594 4.910156 19.226562 4.863281 Z M 22.066406 8.105469 C 20.910156 8.140625 19.824219 8.058594 18.746094 8.320312 C 18.695312 8.757812 18.683594 9.203125 18.59375 9.617188 C 18.402344 10.453125 18.160156 11.277344 17.957031 12.105469 C 17.855469 12.527344 17.785156 12.960938 17.695312 13.386719 C 17.734375 13.402344 17.761719 13.417969 17.800781 13.429688 C 19.171875 11.648438 20.777344 10.054688 22.066406 8.105469 Z M 16.660156 13.859375 C 16.691406 13.855469 16.722656 13.851562 16.746094 13.84375 C 16.742188 13.234375 16.464844 12.679688 16.335938 12.09375 C 16.195312 11.492188 16.023438 10.890625 15.839844 10.296875 C 15.664062 9.71875 15.515625 9.136719 15.277344 8.597656 C 14.15625 8.695312 13.085938 8.746094 12 9.039062 C 12.546875 9.542969 13.039062 9.988281 13.523438 10.449219 C 13.785156 10.695312 14.011719 10.988281 14.285156 11.226562 C 15.109375 11.941406 15.925781 12.660156 16.480469 13.621094 C 16.53125 13.707031 16.597656 13.785156 16.660156 13.859375 Z M 17.164062 13.605469 C 17.183594 13.605469 17.203125 13.605469 17.222656 13.605469 C 17.28125 13.402344 17.332031 13.195312 17.386719 12.992188 C 17.582031 12.277344 17.71875 11.550781 17.976562 10.863281 C 18.292969 10.042969 18.363281 9.1875 18.53125 8.335938 C 17.558594 8.28125 15.972656 8.445312 15.671875 8.648438 C 16.160156 10.289062 16.660156 11.949219 17.164062 13.605469 Z M 13.480469 6.394531 C 12.871094 7.070312 12.371094 7.792969 11.859375 8.585938 C 13 8.4375 14.0625 8.300781 15.15625 8.160156 C 14.777344 7.355469 14.214844 6.820312 13.480469 6.394531 Z M 18.820312 7.875 C 19.152344 7.839844 19.441406 7.8125 19.726562 7.78125 C 20.027344 7.753906 20.332031 7.722656 20.632812 7.707031 C 20.910156 7.691406 21.1875 7.703125 21.511719 7.703125 C 20.910156 6.847656 20.261719 6.128906 19.386719 5.519531 C 19.1875 6.34375 19.007812 7.082031 18.820312 7.875 Z M 15.882812 8.09375 C 16.3125 8.050781 16.695312 8.039062 17.070312 7.980469 C 17.449219 7.921875 17.851562 8.042969 18.246094 7.847656 C 17.972656 7.070312 17.449219 6.523438 16.867188 5.992188 C 16.539062 6.699219 16.222656 7.359375 15.882812 8.09375 Z M 13.9375 6.101562 C 14.398438 6.59375 14.8125 7.011719 15.195312 7.453125 C 15.480469 7.78125 15.546875 7.789062 15.757812 7.390625 C 15.796875 7.324219 15.835938 7.269531 15.867188 7.203125 C 16.09375 6.746094 16.339844 6.289062 16.4375 5.707031 C 15.582031 5.839844 14.773438 5.96875 13.9375 6.101562 Z M 18.980469 5.421875 C 18.234375 5.382812 17.492188 5.5 17.179688 5.6875 C 17.621094 6.242188 18.0625 6.800781 18.519531 7.375 C 18.835938 6.785156 18.875 6.109375 18.980469 5.421875 Z M 18.980469 5.421875 " fill-opacity="1" fill-rule="nonzero"/><path fill="#4a5979" d="M 26.464844 6.332031 C 26.109375 6.523438 25.757812 6.492188 25.40625 6.507812 C 24.996094 6.523438 24.585938 6.652344 24.1875 6.765625 C 24.003906 6.816406 23.855469 6.859375 23.71875 6.699219 C 23.703125 6.492188 23.855469 6.429688 24.003906 6.371094 C 24.632812 6.089844 25.289062 6.035156 25.960938 6.136719 C 26.132812 6.160156 26.296875 6.269531 26.464844 6.332031 Z M 26.464844 6.332031 " fill-opacity="1" fill-rule="nonzero"/><path fill="#4a5979" d="M 23.503906 2.742188 C 23.316406 2.921875 23.144531 3.113281 22.941406 3.273438 C 22.570312 3.5625 22.222656 3.867188 22.019531 4.300781 C 21.996094 4.351562 21.949219 4.386719 21.890625 4.445312 C 21.785156 4.394531 21.6875 4.34375 21.613281 4.304688 C 21.492188 3.765625 22.6875 2.738281 23.503906 2.742188 Z M 23.503906 2.742188 " fill-opacity="1" fill-rule="nonzero"/><g clip-path="url(#b573fa0af1)"><path fill="#4a5979" d="M 18.644531 3.457031 C 18.460938 3.460938 18.394531 3.339844 18.402344 3.203125 C 18.417969 3.003906 18.433594 2.789062 18.515625 2.617188 C 18.738281 2.160156 19 1.726562 19.25 1.285156 C 19.261719 1.253906 19.320312 1.242188 19.371094 1.21875 C 19.445312 1.519531 19.441406 1.792969 19.320312 2.066406 C 19.121094 2.5 18.929688 2.941406 18.730469 3.375 C 18.714844 3.410156 18.667969 3.429688 18.644531 3.457031 Z M 18.644531 3.457031 " fill-opacity="1" fill-rule="nonzero"/></g><path fill="#4a5979" d="M 9.605469 12.792969 C 10.109375 12.359375 10.582031 11.941406 11.066406 11.53125 C 11.105469 11.496094 11.179688 11.460938 11.222656 11.46875 C 11.300781 11.480469 11.402344 11.511719 11.4375 11.570312 C 11.46875 11.621094 11.453125 11.753906 11.40625 11.789062 C 10.96875 12.144531 10.53125 12.496094 10.078125 12.832031 C 9.972656 12.914062 9.820312 12.980469 9.605469 12.792969 Z M 9.605469 12.792969 " fill-opacity="1" fill-rule="nonzero"/><path fill="#4a5979" d="M 23.894531 9.914062 C 24.546875 10.230469 25.132812 10.507812 25.761719 10.8125 C 25.527344 10.992188 25.320312 10.953125 25.140625 10.886719 C 24.777344 10.746094 24.425781 10.582031 24.078125 10.40625 C 23.933594 10.335938 23.941406 10.316406 23.894531 9.914062 Z M 23.894531 9.914062 " fill-opacity="1" fill-rule="nonzero"/><g clip-path="url(#aa4c47bdfa)"><path fill="#4a5979" d="M 9.539062 9.285156 C 9.582031 9.472656 9.566406 9.582031 9.371094 9.640625 C 9.042969 9.742188 8.710938 9.863281 8.390625 9.988281 C 8.207031 10.0625 8.054688 10.054688 7.914062 9.914062 C 8.132812 9.5625 8.964844 9.238281 9.539062 9.285156 Z M 9.539062 9.285156 " fill-opacity="1" fill-rule="nonzero"/></g><g clip-path="url(#04a2c797cf)"><path fill="#4a5979" d="M 15.082031 1.605469 C 15.453125 2.183594 15.511719 2.851562 15.671875 3.550781 C 15.375 3.472656 15.261719 3.308594 15.199219 3.09375 C 15.058594 2.605469 14.878906 2.125 15.082031 1.605469 Z M 15.082031 1.605469 " fill-opacity="1" fill-rule="nonzero"/></g><path fill="#4a5979" d="M 10.109375 6.667969 C 10.070312 6.679688 10.019531 6.710938 9.992188 6.695312 C 9.429688 6.398438 8.859375 6.101562 8.253906 5.773438 C 8.519531 5.554688 8.730469 5.691406 8.929688 5.769531 C 9.726562 6.085938 9.992188 6.292969 10.109375 6.667969 Z M 10.109375 6.667969 " fill-opacity="1" fill-rule="nonzero"/><path fill="#4a5979" d="M 12.308594 4.535156 C 11.882812 4.511719 11.382812 3.90625 11.253906 3.273438 C 11.339844 3.28125 11.449219 3.261719 11.484375 3.304688 C 11.761719 3.652344 12.03125 4.011719 12.300781 4.371094 C 12.316406 4.402344 12.300781 4.453125 12.308594 4.535156 Z M 12.308594 4.535156 " fill-opacity="1" fill-rule="nonzero"/><g clip-path="url(#9f7f040301)"><path fill="#4a5979" d="M 18.234375 14.464844 C 19.453125 14.609375 20.675781 14.710938 21.882812 14.902344 C 23.246094 15.121094 24.339844 15.824219 25.25 16.871094 C 26.160156 17.917969 26.738281 19.125 27.125 20.414062 C 27.347656 21.152344 27.441406 21.941406 27.472656 22.714844 C 27.496094 23.378906 27.410156 24.066406 27.261719 24.71875 C 26.855469 26.480469 26.078125 28.09375 24.863281 29.429688 C 23.53125 30.894531 21.972656 32.089844 19.984375 32.519531 C 19.09375 32.710938 18.171875 32.730469 17.253906 32.789062 C 16.144531 32.859375 15.066406 32.625 14.066406 32.199219 C 12.109375 31.359375 10.398438 30.1875 9.378906 28.222656 C 8.679688 26.878906 8.453125 25.449219 8.535156 23.949219 C 8.546875 23.695312 8.523438 23.4375 8.503906 23.175781 C 8.4375 22.351562 8.257812 21.527344 8.433594 20.703125 C 8.519531 20.289062 8.65625 19.871094 8.839844 19.488281 C 9.734375 17.601562 11.183594 16.332031 13.140625 15.59375 C 13.820312 15.339844 14.492188 15.082031 15.195312 14.890625 C 16.191406 14.632812 17.199219 14.496094 18.234375 14.464844 Z M 17.464844 32.285156 C 18.125 32.222656 18.875 32.210938 19.605469 32.082031 C 20.683594 31.882812 21.671875 31.457031 22.585938 30.808594 C 23.566406 30.113281 24.460938 29.320312 25.152344 28.34375 C 26.027344 27.101562 26.605469 25.707031 26.875 24.207031 C 26.976562 23.65625 27.042969 23.058594 26.960938 22.511719 C 26.808594 21.492188 26.714844 20.445312 26.246094 19.5 C 26 19.007812 25.757812 18.507812 25.484375 18.035156 C 25.070312 17.324219 24.515625 16.726562 23.851562 16.25 C 23.101562 15.714844 22.238281 15.4375 21.347656 15.308594 C 20.363281 15.167969 19.355469 15.132812 18.359375 15.058594 C 17.179688 14.972656 16.015625 15.074219 14.886719 15.445312 C 14.214844 15.671875 13.546875 15.910156 12.890625 16.175781 C 11.519531 16.734375 10.347656 17.550781 9.574219 18.859375 C 9.015625 19.800781 8.65625 20.78125 8.789062 21.910156 C 8.867188 22.589844 8.839844 23.289062 8.867188 23.976562 C 8.878906 24.230469 8.875 24.503906 8.972656 24.734375 C 9.046875 24.914062 9.125 25.058594 9.046875 25.261719 C 9.011719 25.347656 9.03125 25.464844 9.046875 25.566406 C 9.210938 26.867188 9.75 28.015625 10.515625 29.066406 C 11.199219 29.996094 12.148438 30.601562 13.128906 31.160156 C 14.441406 31.902344 15.863281 32.292969 17.464844 32.285156 Z M 17.464844 32.285156 " fill-opacity="1" fill-rule="nonzero"/></g></svg>