<svg xmlns="http://www.w3.org/2000/svg" xmlns:xlink="http://www.w3.org/1999/xlink" width="48" zoomAndPan="magnify" viewBox="0 0 36 36.000001" height="48" preserveAspectRatio="xMidYMid meet" version="1.0"><defs><clipPath id="5b1d958fea"><path d="M 14 6 L 31.507812 6 L 31.507812 32.613281 L 14 32.613281 Z M 14 6 " clip-rule="nonzero"/></clipPath><clipPath id="3b7314ce37"><path d="M 5.238281 3 L 18 3 L 18 17 L 5.238281 17 Z M 5.238281 3 " clip-rule="nonzero"/></clipPath><clipPath id="b4d7085de9"><path d="M 9 2.695312 L 18 2.695312 L 18 8 L 9 8 Z M 9 2.695312 " clip-rule="nonzero"/></clipPath></defs><g clip-path="url(#5b1d958fea)"><path fill="#4a5979" d="M 23.539062 15.949219 C 23.34375 16.242188 23.25 16.570312 23.21875 16.910156 C 23.144531 17.71875 23.066406 18.542969 22.792969 19.300781 C 22.433594 20.308594 21.832031 21.1875 21.109375 21.996094 C 20.53125 22.640625 19.792969 23.066406 19.148438 23.621094 C 18.882812 23.847656 18.488281 23.902344 18.148438 24.015625 C 17.53125 24.222656 16.910156 24.4375 16.230469 24.375 C 15.980469 24.351562 15.839844 24.273438 15.761719 24.027344 C 15.632812 23.605469 15.425781 23.234375 14.984375 23.058594 C 14.726562 22.953125 14.535156 22.777344 14.414062 22.53125 C 14.28125 22.265625 14.375 22.121094 14.664062 22.175781 C 14.988281 22.238281 15.3125 22.332031 15.621094 22.445312 C 16.464844 22.753906 17.34375 22.679688 18.214844 22.738281 C 18.523438 22.761719 18.78125 22.566406 19.015625 22.402344 C 19.25 22.238281 19.492188 22.09375 19.757812 21.992188 C 20.082031 21.867188 20.316406 21.65625 20.539062 21.394531 C 21.03125 20.820312 21.445312 20.1875 21.804688 19.53125 C 22.109375 18.972656 22.230469 18.332031 22.398438 17.71875 C 22.503906 17.324219 22.589844 16.921875 22.683594 16.523438 C 22.699219 16.457031 22.738281 16.394531 22.679688 16.304688 C 22.4375 16.488281 22.378906 16.78125 22.273438 17.019531 C 21.9375 17.78125 21.414062 18.40625 20.828125 18.964844 C 20.425781 19.34375 19.933594 19.660156 19.308594 19.636719 C 18.976562 19.625 18.722656 19.507812 18.589844 19.21875 C 18.480469 18.976562 18.308594 18.820312 18.097656 18.695312 C 17.882812 18.566406 17.714844 18.386719 17.554688 18.203125 C 17.480469 18.121094 17.40625 17.980469 17.53125 17.890625 C 17.644531 17.8125 17.722656 17.921875 17.785156 18.015625 C 17.9375 18.234375 18.125 18.414062 18.367188 18.542969 C 18.558594 18.644531 18.71875 18.789062 18.789062 19.011719 C 18.84375 19.191406 18.988281 19.289062 19.164062 19.300781 C 19.398438 19.3125 19.644531 19.324219 19.855469 19.210938 C 20.25 19 20.613281 18.746094 20.9375 18.417969 C 21.863281 17.488281 22.304688 16.285156 22.886719 15.160156 C 23.066406 14.816406 23.308594 14.503906 23.523438 14.175781 C 23.566406 14.105469 23.671875 14.046875 23.601562 13.949219 C 23.535156 13.851562 23.429688 13.878906 23.335938 13.914062 C 22.714844 14.128906 22.085938 14.289062 21.480469 14.566406 C 20.4375 15.050781 19.421875 15.574219 18.511719 16.28125 C 18.304688 16.445312 18.109375 16.625 17.910156 16.800781 C 17.78125 16.910156 17.703125 17.058594 17.773438 17.21875 C 17.84375 17.359375 18.007812 17.300781 18.121094 17.285156 C 18.722656 17.203125 19.238281 16.902344 19.730469 16.585938 C 20.734375 15.945312 21.722656 15.273438 22.648438 14.511719 C 22.765625 14.417969 22.925781 14.171875 23.082031 14.359375 C 23.261719 14.578125 22.953125 14.644531 22.84375 14.730469 C 22.210938 15.210938 21.5625 15.667969 20.933594 16.144531 C 20.242188 16.660156 19.515625 17.074219 18.738281 17.417969 C 18.433594 17.558594 18.101562 17.621094 17.761719 17.550781 C 17.449219 17.484375 17.382812 17.351562 17.464844 17.042969 C 17.578125 16.628906 17.921875 16.410156 18.21875 16.167969 C 18.980469 15.550781 19.785156 14.988281 20.6875 14.589844 C 21.4375 14.257812 22.15625 13.851562 22.976562 13.699219 C 23.0625 13.679688 23.164062 13.667969 23.1875 13.5625 C 23.210938 13.449219 23.089844 13.4375 23.03125 13.378906 C 22.644531 12.980469 22.101562 13 21.625 12.871094 C 20.988281 12.699219 20.425781 12.410156 19.871094 12.074219 C 19.167969 11.644531 18.574219 11.09375 18.011719 10.507812 C 17.996094 10.492188 17.980469 10.480469 17.96875 10.464844 C 17.878906 10.347656 17.671875 10.21875 17.804688 10.078125 C 17.953125 9.921875 18.074219 10.132812 18.171875 10.238281 C 18.421875 10.511719 18.789062 10.457031 19.09375 10.574219 C 20 10.925781 20.960938 10.894531 21.902344 10.792969 C 22.820312 10.695312 23.734375 10.523438 24.59375 10.128906 C 24.957031 9.960938 25.351562 9.867188 25.640625 9.5625 C 25.71875 9.484375 25.886719 9.4375 25.820312 9.296875 C 25.757812 9.164062 25.597656 9.195312 25.472656 9.207031 C 24.832031 9.273438 24.191406 9.378906 23.570312 9.566406 C 23.542969 9.574219 23.515625 9.585938 23.484375 9.59375 C 23.375 9.617188 23.226562 9.695312 23.175781 9.546875 C 23.121094 9.390625 23.300781 9.378906 23.398438 9.339844 C 24.097656 9.054688 24.839844 8.976562 25.582031 8.890625 C 25.6875 8.878906 25.796875 8.894531 25.902344 8.929688 C 26.175781 9.019531 26.203125 8.992188 26.171875 8.683594 C 26.097656 7.933594 25.808594 7.265625 25.425781 6.628906 C 25.371094 6.535156 25.238281 6.425781 25.378906 6.324219 C 25.519531 6.226562 25.621094 6.355469 25.691406 6.460938 C 26.007812 6.921875 26.265625 7.433594 26.375 7.976562 C 26.507812 8.640625 26.664062 9.320312 26.476562 10.011719 C 26.261719 10.792969 25.902344 11.46875 25.226562 11.941406 C 25.03125 12.078125 24.882812 12.210938 24.921875 12.488281 C 24.953125 12.695312 25.027344 12.769531 25.226562 12.722656 C 25.53125 12.644531 25.839844 12.582031 26.136719 12.488281 C 26.585938 12.351562 27.070312 12.402344 27.5 12.167969 C 28.132812 11.820312 28.878906 11.738281 29.480469 11.308594 C 29.628906 11.203125 29.753906 11.082031 29.851562 10.933594 C 29.929688 10.820312 29.886719 10.742188 29.746094 10.753906 C 29.648438 10.761719 29.546875 10.777344 29.457031 10.808594 C 28.550781 11.121094 27.625 11.386719 26.734375 11.746094 C 26.625 11.792969 26.445312 11.914062 26.394531 11.796875 C 26.316406 11.632812 26.542969 11.609375 26.652344 11.550781 C 27.339844 11.191406 28.109375 11.023438 28.808594 10.699219 C 29.292969 10.472656 29.789062 10.492188 30.28125 10.414062 C 30.40625 10.394531 30.511719 10.460938 30.546875 10.558594 C 30.769531 11.128906 31.089844 11.667969 31.1875 12.28125 C 31.257812 12.691406 30.988281 13.101562 30.601562 13.269531 C 30.125 13.480469 29.628906 13.625 29.109375 13.628906 C 28.136719 13.640625 27.167969 13.714844 26.203125 13.53125 C 25.957031 13.484375 25.695312 13.53125 25.4375 13.53125 C 25.289062 13.53125 25.25 13.617188 25.222656 13.753906 C 25.140625 14.195312 25.34375 14.582031 25.457031 14.984375 C 25.628906 15.613281 25.921875 16.203125 26.113281 16.832031 C 26.164062 16.988281 26.304688 17.125 26.421875 17.253906 C 26.535156 17.375 26.539062 17.492188 26.46875 17.628906 C 26.4375 17.691406 26.402344 17.757812 26.320312 17.746094 C 26.171875 17.71875 26.125 17.589844 26.074219 17.476562 C 25.964844 17.246094 25.859375 17.011719 25.753906 16.78125 C 25.667969 16.597656 25.613281 16.398438 25.363281 16.347656 C 25.273438 16.332031 25.234375 16.210938 25.191406 16.121094 C 25.035156 15.804688 24.867188 15.492188 24.664062 15.203125 C 24.617188 15.136719 24.566406 15.070312 24.480469 15.078125 C 24.386719 15.082031 24.414062 15.175781 24.382812 15.234375 C 24.289062 15.417969 24.183594 15.59375 24.09375 15.777344 C 23.765625 16.421875 23.722656 17.128906 23.640625 17.828125 C 23.496094 19.011719 23.734375 20.167969 23.898438 21.332031 C 24.054688 22.425781 24.230469 23.527344 24.132812 24.640625 C 24.074219 25.328125 23.847656 25.980469 23.511719 26.578125 C 23.09375 27.3125 22.621094 28.007812 22.046875 28.632812 C 21.640625 29.082031 21.296875 29.585938 20.867188 30.019531 C 20.566406 30.320312 20.554688 30.65625 20.761719 31.03125 C 20.816406 31.128906 20.835938 31.21875 20.757812 31.300781 C 20.5625 31.519531 20.371094 31.726562 20.078125 31.84375 C 19.683594 31.996094 19.398438 32.308594 19.175781 32.65625 C 19.023438 32.898438 18.863281 32.890625 18.664062 32.765625 C 18.304688 32.535156 18.164062 32.074219 18.316406 31.550781 C 18.527344 30.832031 18.9375 30.222656 19.484375 29.710938 C 20.1875 29.058594 20.984375 28.503906 21.605469 27.769531 C 22.003906 27.300781 22.242188 26.71875 22.476562 26.148438 C 22.8125 25.335938 22.941406 24.472656 23.117188 23.621094 C 23.207031 23.175781 23.257812 22.730469 23.253906 22.277344 C 23.25 20.738281 23.183594 19.195312 23.273438 17.660156 C 23.300781 17.164062 23.425781 16.671875 23.503906 16.179688 C 23.515625 16.105469 23.527344 16.027344 23.539062 15.949219 Z M 19.007812 10.988281 C 19.425781 11.363281 19.867188 11.5625 20.25 11.839844 C 20.863281 12.285156 21.605469 12.441406 22.324219 12.628906 C 22.730469 12.738281 23.148438 12.914062 23.566406 12.636719 C 23.609375 12.609375 23.679688 12.628906 23.738281 12.628906 C 23.855469 12.632812 24 12.621094 24 12.789062 C 24 12.9375 23.929688 13.054688 23.773438 13.089844 C 23.726562 13.101562 23.671875 13.085938 23.625 13.09375 C 23.546875 13.105469 23.421875 13.082031 23.433594 13.210938 C 23.445312 13.308594 23.546875 13.347656 23.640625 13.332031 C 23.824219 13.304688 24.011719 13.285156 24.1875 13.234375 C 24.660156 13.105469 24.800781 12.867188 24.582031 12.433594 C 24.417969 12.101562 24.582031 11.945312 24.808594 11.820312 C 25.402344 11.484375 25.78125 10.980469 26.039062 10.371094 C 26.132812 10.144531 26.207031 9.90625 26.164062 9.621094 C 25.894531 9.832031 25.753906 10.101562 25.457031 10.214844 C 24.894531 10.4375 24.34375 10.6875 23.757812 10.851562 C 22.378906 11.242188 20.996094 11.386719 19.585938 11.054688 C 19.425781 11.015625 19.261719 11.015625 19.007812 10.988281 Z M 23.722656 22.019531 C 23.667969 22.085938 23.640625 22.105469 23.636719 22.125 C 23.609375 22.351562 23.582031 22.574219 23.5625 22.796875 C 23.472656 23.910156 23.28125 25 22.910156 26.0625 C 22.515625 27.203125 21.875 28.148438 20.9375 28.917969 C 20.210938 29.515625 19.433594 30.070312 18.957031 30.933594 C 18.757812 31.292969 18.636719 31.640625 18.644531 32.039062 C 18.648438 32.15625 18.644531 32.292969 18.769531 32.351562 C 18.910156 32.417969 19.007812 32.308594 19.101562 32.222656 C 19.425781 31.921875 19.757812 31.636719 20.191406 31.496094 C 20.355469 31.441406 20.546875 31.335938 20.429688 31.078125 C 20.261719 30.710938 20.28125 30.347656 20.535156 30.027344 C 20.949219 29.507812 21.347656 28.964844 21.8125 28.496094 C 22.402344 27.90625 22.84375 27.214844 23.25 26.507812 C 23.832031 25.492188 23.972656 24.363281 23.886719 23.207031 C 23.855469 22.824219 23.78125 22.445312 23.722656 22.019531 Z M 27.839844 13.304688 C 28.492188 13.269531 28.984375 13.234375 29.472656 13.21875 C 29.84375 13.203125 30.1875 13.117188 30.503906 12.917969 C 30.898438 12.671875 30.984375 12.425781 30.8125 12 C 30.6875 11.691406 30.558594 11.382812 30.429688 11.078125 C 30.394531 11 30.40625 10.875 30.304688 10.859375 C 30.1875 10.84375 30.15625 10.972656 30.105469 11.046875 C 29.90625 11.347656 29.660156 11.585938 29.339844 11.757812 C 28.742188 12.074219 28.0625 12.1875 27.46875 12.511719 C 27.367188 12.570312 27.25 12.609375 27.136719 12.625 C 26.484375 12.714844 25.855469 12.890625 25.21875 13.050781 C 25.152344 13.066406 25.054688 13.074219 25.0625 13.152344 C 25.074219 13.261719 25.1875 13.222656 25.253906 13.214844 C 25.585938 13.191406 25.917969 13.109375 26.25 13.175781 C 26.828125 13.296875 27.414062 13.347656 27.839844 13.304688 Z M 22.707031 18.121094 C 22.582031 18.246094 22.566406 18.402344 22.511719 18.542969 C 22.339844 18.992188 22.269531 19.476562 22.007812 19.886719 C 21.703125 20.371094 21.386719 20.859375 21.023438 21.304688 C 20.777344 21.609375 20.585938 22 20.179688 22.132812 C 19.6875 22.296875 19.292969 22.632812 18.84375 22.863281 C 18.628906 22.976562 18.421875 23.066406 18.175781 23.046875 C 17.746094 23.015625 17.316406 22.996094 16.886719 22.964844 C 16.375 22.933594 15.875 22.882812 15.40625 22.636719 C 15.234375 22.542969 15.011719 22.492188 14.800781 22.5625 C 14.816406 22.644531 14.859375 22.664062 14.90625 22.683594 C 15.425781 22.886719 15.804688 23.238281 16.007812 23.757812 C 16.097656 23.984375 16.246094 24.015625 16.46875 24.027344 C 16.878906 24.050781 17.261719 23.941406 17.648438 23.832031 C 18.289062 23.652344 18.933594 23.484375 19.410156 22.96875 C 19.460938 22.914062 19.535156 22.875 19.601562 22.839844 C 20.226562 22.527344 20.660156 22.003906 21.117188 21.507812 C 21.601562 20.992188 21.921875 20.355469 22.308594 19.769531 C 22.628906 19.277344 22.703125 18.703125 22.707031 18.121094 Z M 25.191406 15.242188 C 25.09375 14.886719 25.011719 14.582031 24.921875 14.253906 C 24.566406 14.597656 24.632812 14.828125 25.191406 15.242188 Z M 24.117188 14.566406 C 23.925781 14.878906 23.757812 15.148438 23.59375 15.417969 C 23.5625 15.472656 23.550781 15.542969 23.613281 15.574219 C 23.6875 15.605469 23.707031 15.523438 23.734375 15.476562 C 23.839844 15.300781 23.949219 15.128906 24.042969 14.945312 C 24.09375 14.851562 24.203125 14.765625 24.117188 14.566406 Z M 24.472656 13.722656 C 24.574219 13.683594 24.730469 13.75 24.78125 13.582031 C 24.796875 13.519531 24.800781 13.433594 24.738281 13.394531 C 24.617188 13.316406 24.519531 13.421875 24.421875 13.46875 C 24.347656 13.507812 24.199219 13.5 24.238281 13.640625 C 24.265625 13.742188 24.378906 13.710938 24.472656 13.722656 Z M 24.472656 13.722656 " fill-opacity="1" fill-rule="nonzero"/></g><g clip-path="url(#3b7314ce37)"><path fill="#4a5979" d="M 12.351562 10.824219 C 12.117188 10.808594 11.742188 10.894531 11.378906 10.765625 C 11.28125 10.730469 11.210938 10.769531 11.144531 10.84375 C 10.472656 11.554688 9.785156 12.257812 9.269531 13.097656 C 9.085938 13.40625 8.863281 13.695312 8.722656 14.03125 C 8.648438 14.207031 8.660156 14.355469 8.796875 14.488281 C 9.03125 14.714844 9.195312 14.988281 9.347656 15.277344 C 9.621094 15.796875 9.308594 16.277344 8.839844 16.492188 C 8.304688 16.738281 7.796875 16.597656 7.300781 16.398438 C 6.550781 16.089844 5.953125 15.578125 5.476562 14.925781 C 5.238281 14.601562 5.355469 14.179688 5.726562 13.996094 C 6.417969 13.652344 7.164062 13.65625 7.910156 13.644531 C 7.921875 13.644531 7.933594 13.644531 7.9375 13.648438 C 8.265625 13.921875 8.390625 13.632812 8.542969 13.429688 C 9.183594 12.578125 9.59375 11.621094 9.789062 10.582031 C 9.867188 10.167969 9.875 9.753906 9.496094 9.429688 C 8.941406 8.957031 8.738281 8.28125 8.519531 7.621094 C 8.203125 6.652344 8.355469 5.679688 8.519531 4.710938 C 8.578125 4.371094 8.695312 4.050781 8.835938 3.738281 C 8.875 3.644531 8.878906 3.484375 9.027344 3.523438 C 9.179688 3.5625 9.152344 3.71875 9.113281 3.824219 C 8.992188 4.144531 8.941406 4.488281 8.859375 4.820312 C 8.703125 5.460938 8.597656 6.136719 8.683594 6.769531 C 8.835938 7.941406 9.273438 9.015625 10.378906 9.667969 C 10.476562 9.722656 10.597656 9.773438 10.570312 9.929688 C 10.542969 10.089844 10.441406 10.136719 10.292969 10.128906 C 10.238281 10.125 10.183594 10.15625 10.195312 10.210938 C 10.261719 10.648438 9.9375 10.984375 9.898438 11.390625 C 9.890625 11.4375 9.871094 11.484375 9.859375 11.53125 C 9.847656 11.582031 9.839844 11.636719 9.886719 11.667969 C 9.949219 11.707031 10.003906 11.65625 10.035156 11.609375 C 10.257812 11.28125 10.601562 11.070312 10.863281 10.785156 C 10.9375 10.703125 11.027344 10.636719 11.058594 10.527344 C 11.101562 10.367188 11.21875 10.347656 11.328125 10.417969 C 11.539062 10.554688 11.757812 10.53125 11.984375 10.519531 C 12.65625 10.480469 13.34375 10.550781 13.988281 10.277344 C 14.707031 9.96875 15.449219 9.6875 15.953125 9.042969 C 16.214844 8.707031 16.492188 8.371094 16.589844 7.933594 C 16.609375 7.851562 16.652344 7.769531 16.699219 7.695312 C 16.746094 7.625 16.828125 7.609375 16.910156 7.636719 C 16.988281 7.667969 16.996094 7.734375 17.003906 7.808594 C 17.023438 7.980469 16.933594 8.109375 16.847656 8.238281 C 16.5625 8.667969 16.324219 9.128906 15.972656 9.519531 C 15.613281 9.921875 15.132812 10.117188 14.671875 10.351562 C 14.457031 10.464844 14.222656 10.542969 13.996094 10.636719 C 13.511719 10.832031 12.996094 10.816406 12.351562 10.824219 Z M 8.257812 16.230469 C 8.4375 16.242188 8.613281 16.191406 8.777344 16.136719 C 9.0625 16.046875 9.195312 15.757812 9.105469 15.472656 C 9 15.136719 8.835938 15.035156 8.511719 15.109375 C 8.375 15.140625 8.257812 15.058594 8.28125 14.957031 C 8.367188 14.589844 7.929688 14.394531 8.007812 14.03125 C 8.03125 13.929688 7.863281 13.925781 7.769531 13.933594 C 7.503906 13.953125 7.242188 14.003906 6.976562 14 C 6.628906 13.992188 6.324219 14.132812 6.027344 14.265625 C 5.652344 14.4375 5.617188 14.722656 5.914062 15.011719 C 6.085938 15.171875 6.257812 15.332031 6.4375 15.484375 C 6.96875 15.917969 7.585938 16.140625 8.257812 16.230469 Z M 8.257812 16.230469 " fill-opacity="1" fill-rule="nonzero"/></g><path fill="#4a5979" d="M 18.847656 10.113281 C 18.585938 10.089844 18.289062 10.015625 18.019531 9.875 C 17.65625 9.691406 17.628906 9.058594 17.9375 8.734375 C 18.816406 7.8125 19.871094 7.140625 21.011719 6.613281 C 21.757812 6.265625 22.542969 6.023438 23.363281 5.898438 C 23.652344 5.851562 23.933594 5.761719 24.222656 5.699219 C 24.328125 5.679688 24.4375 5.679688 24.542969 5.683594 C 24.640625 5.683594 24.722656 5.730469 24.722656 5.839844 C 24.722656 5.933594 24.640625 5.953125 24.558594 5.96875 C 24.105469 6.054688 23.652344 6.140625 23.203125 6.238281 C 21.980469 6.5 20.863281 7.003906 19.804688 7.65625 C 19.300781 7.964844 18.835938 8.3125 18.421875 8.734375 C 18.230469 8.933594 17.992188 9.171875 18.113281 9.445312 C 18.226562 9.699219 18.5625 9.746094 18.835938 9.734375 C 19.15625 9.726562 19.476562 9.667969 19.792969 9.601562 C 20.050781 9.546875 20.304688 9.460938 20.570312 9.4375 C 21.132812 9.386719 21.597656 9.070312 22.09375 8.84375 C 22.847656 8.492188 23.558594 8.058594 24.265625 7.617188 C 24.46875 7.492188 24.628906 7.320312 24.78125 7.140625 C 24.886719 7.011719 24.863281 6.867188 24.804688 6.722656 C 24.757812 6.605469 24.78125 6.503906 24.902344 6.453125 C 25.042969 6.398438 25.136719 6.476562 25.175781 6.597656 C 25.238281 6.785156 25.292969 6.964844 25.160156 7.160156 C 24.972656 7.4375 24.761719 7.679688 24.480469 7.871094 C 23.460938 8.574219 22.359375 9.125 21.25 9.660156 C 21.234375 9.667969 21.214844 9.679688 21.195312 9.683594 C 20.429688 9.824219 19.679688 10.074219 18.847656 10.113281 Z M 18.847656 10.113281 " fill-opacity="1" fill-rule="nonzero"/><g clip-path="url(#b4d7085de9)"><path fill="#4a5979" d="M 15.136719 7.648438 C 14.0625 7.625 13.101562 7.367188 12.167969 6.941406 C 11.355469 6.570312 10.671875 6.046875 10.085938 5.390625 C 9.675781 4.929688 9.425781 4.378906 9.339844 3.761719 C 9.300781 3.464844 9.398438 3.210938 9.640625 3.039062 C 10 2.789062 10.40625 2.703125 10.84375 2.738281 C 10.910156 2.742188 10.988281 2.761719 10.988281 2.851562 C 10.984375 2.945312 10.902344 2.945312 10.835938 2.949219 C 10.589844 2.972656 10.347656 3.007812 10.113281 3.085938 C 9.699219 3.21875 9.5625 3.445312 9.660156 3.867188 C 9.832031 4.570312 10.195312 5.140625 10.742188 5.636719 C 11.410156 6.25 12.1875 6.644531 13.019531 6.941406 C 14.0625 7.3125 15.140625 7.410156 16.238281 7.28125 C 16.695312 7.226562 16.886719 6.738281 16.644531 6.246094 C 16.539062 6.03125 16.351562 5.878906 16.203125 5.703125 C 15.359375 4.710938 14.335938 3.976562 13.074219 3.601562 C 12.890625 3.546875 12.683594 3.566406 12.515625 3.441406 C 12.421875 3.375 12.28125 3.324219 12.335938 3.179688 C 12.390625 3.039062 12.539062 3.0625 12.644531 3.09375 C 12.992188 3.195312 13.328125 3.332031 13.65625 3.492188 C 14.25 3.785156 14.875 4.027344 15.375 4.492188 C 15.847656 4.929688 16.34375 5.347656 16.738281 5.863281 C 16.875 6.039062 16.964844 6.230469 17.035156 6.4375 C 17.222656 6.980469 16.890625 7.507812 16.320312 7.5625 C 15.910156 7.601562 15.496094 7.621094 15.136719 7.648438 Z M 15.136719 7.648438 " fill-opacity="1" fill-rule="nonzero"/></g><path fill="#4a5979" d="M 28.210938 16.632812 C 28.40625 16.664062 28.652344 16.640625 28.722656 16.855469 C 28.789062 17.074219 28.714844 17.320312 28.546875 17.480469 C 28.03125 17.972656 27.550781 18.496094 26.9375 18.890625 C 26.230469 19.351562 25.546875 19.835938 24.75 20.136719 C 24.527344 20.21875 24.289062 20.332031 24.089844 20.144531 C 23.863281 19.925781 23.898438 19.613281 24.011719 19.371094 C 24.285156 18.78125 24.679688 18.269531 25.203125 17.871094 C 25.257812 17.828125 25.316406 17.792969 25.378906 17.761719 C 25.480469 17.710938 25.609375 17.628906 25.691406 17.757812 C 25.78125 17.890625 25.648438 17.96875 25.550781 18.03125 C 25.0625 18.375 24.664062 18.796875 24.390625 19.335938 C 24.367188 19.386719 24.335938 19.4375 24.3125 19.492188 C 24.273438 19.597656 24.1875 19.71875 24.285156 19.820312 C 24.382812 19.925781 24.511719 19.855469 24.613281 19.808594 C 25.277344 19.5 25.941406 19.214844 26.53125 18.746094 C 27.011719 18.363281 27.542969 18.042969 27.976562 17.601562 C 28.015625 17.558594 28.066406 17.527344 28.109375 17.484375 C 28.238281 17.355469 28.46875 17.1875 28.378906 17.046875 C 28.253906 16.855469 28 17.011719 27.816406 17.070312 C 27.648438 17.121094 27.507812 17.242188 27.347656 17.316406 C 27.253906 17.359375 27.128906 17.40625 27.058594 17.289062 C 26.980469 17.164062 27.0625 17.0625 27.167969 16.996094 C 27.488281 16.792969 27.84375 16.6875 28.210938 16.632812 Z M 28.210938 16.632812 " fill-opacity="1" fill-rule="nonzero"/><path fill="#4a5979" d="M 13.734375 8.636719 C 13.195312 8.585938 12.660156 8.535156 12.121094 8.484375 C 12.035156 8.476562 11.941406 8.464844 11.863281 8.429688 C 10.910156 8 9.953125 7.566406 9.1875 6.820312 C 9.097656 6.730469 9.007812 6.640625 8.964844 6.515625 C 8.933594 6.4375 8.929688 6.355469 9.019531 6.3125 C 9.09375 6.273438 9.144531 6.332031 9.191406 6.386719 C 9.582031 6.847656 10.089844 7.167969 10.597656 7.472656 C 11.6875 8.136719 12.886719 8.34375 14.144531 8.230469 C 14.71875 8.175781 15.304688 8.195312 15.859375 8 C 15.925781 7.976562 16.015625 7.984375 16.089844 8.003906 C 16.1875 8.03125 16.269531 8.105469 16.269531 8.214844 C 16.269531 8.332031 16.175781 8.378906 16.070312 8.390625 C 15.292969 8.472656 14.515625 8.554688 13.734375 8.636719 Z M 13.734375 8.636719 " fill-opacity="1" fill-rule="nonzero"/></svg>