<svg xmlns="http://www.w3.org/2000/svg" xmlns:xlink="http://www.w3.org/1999/xlink" width="48" zoomAndPan="magnify" viewBox="0 0 36 36.000001" height="48" preserveAspectRatio="xMidYMid meet" version="1.0"><defs><clipPath id="53685c248c"><path d="M 4 2.339844 L 34.636719 2.339844 L 34.636719 30.800781 L 4 30.800781 Z M 4 2.339844 " clip-rule="nonzero"/></clipPath></defs><g clip-path="url(#53685c248c)"><path fill="#4a5979" d="M 40.035156 2.429688 C 40.019531 2.472656 40.035156 2.511719 40.078125 2.527344 C 40.167969 2.5625 40.207031 2.523438 40.171875 2.429688 C 40.136719 2.339844 40.070312 2.339844 40.035156 2.429688 M 32.636719 6.882812 C 32.445312 7 32.046875 7.574219 31.804688 8.078125 C 31.230469 9.269531 30.988281 10.640625 30.980469 12.722656 C 30.976562 13.328125 30.960938 14.023438 30.9375 14.265625 C 30.917969 14.507812 30.902344 15.058594 30.90625 15.492188 C 30.910156 16.152344 30.933594 16.378906 31.035156 16.882812 C 31.203125 17.707031 31.320312 18.039062 31.464844 18.132812 C 31.605469 18.226562 31.695312 18.199219 31.765625 18.042969 C 31.808594 17.949219 31.804688 17.910156 31.746094 17.84375 C 31.675781 17.765625 31.570312 17.085938 31.484375 16.140625 C 31.425781 15.484375 31.4375 13.285156 31.503906 12.597656 C 31.753906 9.960938 31.820312 9.53125 32.085938 8.734375 C 32.1875 8.433594 32.269531 8.164062 32.269531 8.140625 C 32.269531 8.066406 32.539062 7.546875 32.621094 7.464844 C 32.765625 7.324219 32.78125 7.464844 32.730469 8.292969 C 32.703125 8.738281 32.648438 9.453125 32.613281 9.886719 C 32.574219 10.320312 32.519531 10.945312 32.492188 11.277344 C 32.464844 11.613281 32.441406 13.011719 32.441406 14.449219 C 32.441406 15.863281 32.429688 17.296875 32.414062 17.636719 C 32.398438 17.972656 32.390625 18.269531 32.398438 18.296875 C 32.40625 18.320312 32.457031 18.34375 32.503906 18.34375 C 32.765625 18.34375 32.839844 17.605469 32.847656 14.984375 C 32.855469 11.160156 32.921875 9.992188 33.171875 8.960938 C 33.265625 8.578125 33.289062 8.386719 33.265625 8.195312 C 33.164062 7.234375 33.082031 6.945312 32.886719 6.859375 C 32.75 6.796875 32.777344 6.792969 32.636719 6.882812 M 19.539062 7.199219 C 19.429688 7.234375 19.3125 7.28125 19.28125 7.304688 C 19.253906 7.328125 19.152344 7.375 19.066406 7.410156 C 18.976562 7.445312 18.757812 7.539062 18.578125 7.617188 C 17.867188 7.9375 17.054688 8.1875 16.679688 8.203125 C 16.40625 8.210938 16.21875 8.160156 15.710938 7.933594 C 15.457031 7.820312 15.152344 7.714844 15.027344 7.699219 C 14.363281 7.621094 13.523438 8.21875 12.664062 9.378906 C 12.4375 9.683594 12.214844 9.976562 12.167969 10.027344 C 11.894531 10.339844 11.8125 10.582031 11.949219 10.695312 C 12.089844 10.8125 12.460938 10.515625 13.070312 9.785156 C 13.769531 8.957031 13.96875 8.753906 14.269531 8.554688 C 14.617188 8.328125 14.589844 8.328125 15.730469 8.625 C 15.84375 8.65625 16.207031 8.679688 16.539062 8.675781 C 17.515625 8.667969 18.355469 8.46875 19.257812 8.039062 C 19.550781 7.894531 19.839844 7.777344 19.894531 7.777344 C 19.960938 7.777344 20.074219 7.863281 20.203125 8.003906 C 20.429688 8.253906 20.636719 8.355469 21.3125 8.539062 C 21.539062 8.601562 21.9375 8.71875 22.191406 8.796875 C 22.59375 8.921875 23.332031 9.039062 24.042969 9.089844 C 24.277344 9.105469 24.238281 8.976562 23.964844 8.8125 C 23.632812 8.617188 23.152344 8.453125 22.679688 8.367188 C 22.460938 8.328125 22.148438 8.273438 21.984375 8.242188 C 21.609375 8.175781 21.261719 7.992188 20.820312 7.632812 C 20.175781 7.105469 20.015625 7.050781 19.539062 7.199219 M 5.734375 8.28125 C 5.589844 8.371094 5.574219 8.59375 5.582031 10.117188 C 5.585938 10.957031 5.574219 11.628906 5.550781 11.609375 C 5.53125 11.585938 5.511719 11.023438 5.507812 10.359375 C 5.503906 9.429688 5.484375 9.085938 5.429688 8.890625 C 5.324219 8.507812 5.304688 8.472656 5.183594 8.472656 C 5.039062 8.472656 4.992188 8.597656 4.941406 9.09375 L 4.90625 9.46875 L 4.847656 9.261719 C 4.742188 8.894531 4.246094 8.527344 4.238281 8.808594 C 4.234375 8.867188 4.222656 8.964844 4.214844 9.03125 C 4.023438 10.1875 3.996094 10.675781 4.023438 12.265625 C 4.039062 13.074219 4.0625 13.855469 4.082031 14.011719 C 4.136719 14.507812 4.28125 14.964844 4.546875 15.464844 C 4.816406 15.980469 5.039062 16.257812 5.171875 16.257812 C 5.347656 16.257812 5.324219 16.183594 4.761719 14.960938 C 4.644531 14.703125 4.425781 13.898438 4.371094 13.523438 C 4.328125 13.222656 4.347656 11.082031 4.402344 10.117188 C 4.410156 9.992188 4.417969 9.71875 4.421875 9.515625 L 4.429688 9.144531 L 4.519531 9.316406 C 4.65625 9.574219 4.695312 10.015625 4.71875 11.660156 C 4.746094 13.335938 4.753906 13.378906 5.039062 13.453125 C 5.304688 13.515625 5.367188 13.429688 5.363281 13.003906 L 5.359375 12.667969 L 5.414062 12.980469 C 5.441406 13.148438 5.5 13.320312 5.535156 13.355469 C 5.648438 13.457031 5.894531 13.484375 5.976562 13.402344 C 6.0625 13.316406 6.066406 13.199219 5.980469 12.796875 C 5.890625 12.359375 5.867188 11.996094 5.835938 10.445312 C 5.816406 9.582031 5.824219 9.058594 5.855469 8.984375 C 5.890625 8.898438 5.90625 9.039062 5.914062 9.5625 C 5.917969 9.945312 5.929688 10.324219 5.933594 10.40625 C 5.9375 10.488281 5.957031 10.851562 5.972656 11.21875 C 5.992188 11.582031 6.015625 11.941406 6.027344 12.019531 C 6.035156 12.09375 6.066406 12.429688 6.097656 12.757812 C 6.128906 13.089844 6.175781 13.390625 6.199219 13.421875 C 6.277344 13.523438 6.480469 13.46875 6.515625 13.339844 C 6.53125 13.273438 6.53125 12.835938 6.515625 12.367188 C 6.46875 10.949219 6.511719 9.539062 6.605469 9.539062 C 6.628906 9.539062 6.648438 9.628906 6.648438 9.738281 C 6.648438 9.84375 6.683594 10.164062 6.722656 10.441406 C 6.839844 11.285156 6.859375 12.828125 6.765625 13.570312 C 6.632812 14.625 6.492188 15.125 6.171875 15.667969 C 5.972656 16 5.949219 16.117188 6.070312 16.117188 C 6.222656 16.117188 6.746094 15.21875 6.949219 14.613281 C 7.054688 14.300781 7.195312 13.503906 7.242188 12.96875 C 7.347656 11.730469 7.167969 9.742188 6.859375 8.707031 C 6.792969 8.492188 6.742188 8.3125 6.742188 8.308594 C 6.742188 8.304688 6.710938 8.285156 6.671875 8.273438 C 6.585938 8.238281 6.449219 8.492188 6.378906 8.820312 C 6.328125 9.050781 6.257812 10.441406 6.257812 11.214844 C 6.253906 11.4375 6.238281 11.632812 6.21875 11.652344 C 6.1875 11.683594 6.15625 10.9375 6.179688 10.722656 C 6.183594 10.671875 6.191406 10.597656 6.195312 10.558594 C 6.21875 10.230469 6.121094 8.789062 6.066406 8.632812 C 5.988281 8.414062 5.816406 8.230469 5.734375 8.28125 M 5.226562 9.957031 C 5.226562 10.609375 5.238281 10.8125 5.261719 10.605469 C 5.308594 10.191406 5.308594 9.414062 5.261719 9.191406 C 5.238281 9.070312 5.222656 9.339844 5.226562 9.957031 M 24.609375 9.105469 C 24.53125 9.183594 24.59375 9.328125 24.839844 9.621094 C 25.308594 10.171875 25.976562 10.800781 26.484375 11.160156 C 27.234375 11.691406 27.371094 11.902344 27.660156 12.992188 C 27.882812 13.816406 28.0625 14.175781 28.601562 14.84375 C 29.164062 15.542969 29.230469 15.871094 29.09375 17.230469 C 28.984375 18.324219 28.980469 19.605469 29.089844 20.519531 C 29.1875 21.34375 29.171875 21.617188 28.996094 22.097656 C 28.84375 22.503906 28.742188 22.679688 28.289062 23.308594 C 27.886719 23.859375 27.75 24.144531 27.371094 25.191406 C 27.074219 26.011719 26.105469 27.226562 25.460938 27.585938 C 25.347656 27.652344 25 27.792969 24.695312 27.898438 C 24.171875 28.078125 24.105469 28.089844 23.628906 28.089844 C 23.347656 28.085938 22.878906 28.070312 22.585938 28.050781 C 21.78125 27.992188 21.472656 28.058594 21.027344 28.378906 C 20.578125 28.699219 20.441406 28.769531 19.875 28.949219 C 19.34375 29.117188 18.703125 29.203125 18.300781 29.160156 C 17.894531 29.117188 17.238281 28.96875 17.074219 28.882812 C 16.8125 28.746094 15.578125 28.445312 15.28125 28.441406 C 15.0625 28.441406 15.011719 28.488281 15.054688 28.652344 C 15.097656 28.832031 15.519531 29.011719 16.660156 29.339844 C 17.613281 29.613281 18.320312 29.714844 19.25 29.714844 C 19.855469 29.710938 20.335938 29.535156 21.101562 29.027344 C 21.894531 28.503906 21.824219 28.527344 22.558594 28.507812 C 23.285156 28.488281 23.914062 28.449219 24.648438 28.371094 C 25.25 28.308594 25.835938 28.03125 26.285156 27.59375 C 26.511719 27.371094 27.21875 26.53125 27.21875 26.480469 C 27.21875 26.46875 27.292969 26.347656 27.386719 26.210938 C 27.621094 25.863281 27.90625 25.238281 28.011719 24.828125 C 28.132812 24.378906 28.265625 24.113281 28.574219 23.726562 C 29.042969 23.132812 29.472656 22.355469 29.605469 21.851562 C 29.691406 21.535156 29.691406 20.894531 29.605469 20.542969 C 29.496094 20.089844 29.515625 19.601562 29.699219 18.386719 C 29.738281 18.121094 29.804688 17.75 29.839844 17.566406 C 29.964844 16.929688 29.90625 15.894531 29.714844 15.40625 C 29.640625 15.21875 29.449219 14.914062 29.347656 14.820312 C 29.332031 14.808594 29.164062 14.601562 28.972656 14.359375 C 28.542969 13.8125 28.441406 13.574219 28.144531 12.410156 C 27.992188 11.8125 27.910156 11.617188 27.753906 11.472656 C 27.558594 11.289062 27 10.875 26.800781 10.765625 C 26.503906 10.605469 25.539062 9.796875 24.988281 9.25 C 24.855469 9.121094 24.667969 9.046875 24.609375 9.105469 M 17.976562 11.121094 C 16.515625 11.355469 15.460938 11.691406 14.875 12.105469 C 14.234375 12.566406 13.007812 14.054688 12.507812 14.984375 C 12.414062 15.160156 12.320312 15.328125 12.300781 15.355469 C 12.199219 15.492188 11.765625 16.363281 11.6875 16.582031 C 11.375 17.457031 11.367188 17.507812 11.398438 18.457031 C 11.4375 19.792969 11.507812 20.582031 11.613281 20.925781 C 11.742188 21.34375 12.574219 23 12.894531 23.476562 C 13.039062 23.695312 13.320312 24.035156 13.515625 24.234375 C 13.847656 24.566406 14.730469 25.269531 14.894531 25.328125 C 14.933594 25.339844 15.089844 25.449219 15.242188 25.570312 C 15.699219 25.925781 15.992188 26.066406 16.65625 26.234375 C 17 26.324219 17.609375 26.480469 18.011719 26.585938 C 18.601562 26.742188 18.816406 26.777344 19.101562 26.769531 C 20.230469 26.746094 21.425781 26.34375 22.824219 25.519531 C 23.648438 25.03125 24.851562 23.832031 25.476562 22.871094 C 25.621094 22.652344 25.734375 22.464844 25.734375 22.449219 C 25.734375 22.4375 25.804688 22.273438 25.890625 22.085938 C 26.058594 21.726562 26.339844 20.886719 26.429688 20.492188 C 26.621094 19.640625 26.644531 18.222656 26.480469 17.5 C 26.277344 16.597656 26.039062 16.023438 25.441406 14.984375 C 25.015625 14.242188 24.921875 14.125 24.347656 13.648438 C 24.078125 13.425781 23.667969 13.058594 23.433594 12.832031 C 22.410156 11.84375 22.023438 11.667969 19.921875 11.261719 C 19.136719 11.109375 18.398438 11.054688 17.976562 11.121094 M 4.941406 11.582031 C 4.945312 11.796875 4.964844 12.128906 4.984375 12.320312 C 5.007812 12.5625 5.011719 12.449219 5 11.949219 C 4.988281 11.554688 4.96875 11.226562 4.957031 11.214844 C 4.945312 11.203125 4.9375 11.367188 4.941406 11.582031 M 10.460938 11.519531 C 10.074219 11.753906 9.738281 12.039062 9.40625 12.425781 C 9.164062 12.703125 8.863281 13.128906 8.808594 13.269531 C 8.671875 13.636719 8.664062 13.71875 8.679688 14.527344 C 8.695312 15.535156 8.65625 15.71875 8.285156 16.488281 C 7.917969 17.246094 7.878906 17.394531 7.882812 18 C 7.882812 18.285156 7.90625 18.578125 7.933594 18.648438 C 7.964844 18.722656 8.042969 18.96875 8.109375 19.199219 C 8.175781 19.429688 8.28125 19.78125 8.347656 19.988281 C 8.441406 20.273438 8.46875 20.472656 8.480469 20.886719 C 8.496094 21.410156 8.53125 21.515625 8.664062 21.460938 C 8.816406 21.40625 8.875 20.90625 8.78125 20.496094 C 8.757812 20.394531 8.726562 20.164062 8.710938 19.988281 C 8.675781 19.613281 8.636719 19.402344 8.53125 19.011719 C 8.386719 18.492188 8.320312 17.953125 8.363281 17.65625 C 8.40625 17.339844 8.484375 17.167969 8.753906 16.8125 C 9.070312 16.390625 9.070312 16.40625 9.109375 15.007812 C 9.128906 14.304688 9.164062 13.628906 9.191406 13.503906 C 9.289062 13.066406 9.507812 12.808594 10.289062 12.21875 C 10.699219 11.90625 10.917969 11.644531 10.902344 11.496094 C 10.882812 11.316406 10.785156 11.320312 10.460938 11.519531 M 17.589844 11.609375 C 17.09375 11.679688 15.910156 11.953125 15.773438 12.023438 C 14.953125 12.464844 13.886719 13.546875 13.089844 14.742188 C 12.734375 15.277344 12.242188 16.378906 12.125 16.90625 C 11.894531 17.917969 11.855469 18.46875 11.949219 19.367188 C 12.042969 20.226562 12.132812 20.683594 12.308594 21.144531 C 12.449219 21.511719 12.855469 22.421875 12.902344 22.464844 C 12.914062 22.476562 12.988281 22.601562 13.0625 22.742188 C 13.445312 23.46875 14.300781 24.445312 14.953125 24.90625 C 15.65625 25.402344 17.082031 25.96875 18.070312 26.144531 C 18.296875 26.183594 18.558594 26.234375 18.648438 26.253906 C 19.039062 26.335938 19.480469 26.277344 20.105469 26.0625 C 20.4375 25.949219 20.898438 25.800781 21.125 25.730469 C 21.914062 25.492188 22.5 25.171875 23.203125 24.609375 C 23.964844 23.992188 24.570312 23.289062 25.027344 22.488281 C 25.25 22.101562 25.609375 21.316406 25.71875 20.984375 C 25.957031 20.261719 26.082031 18.835938 26.011719 17.714844 C 25.96875 17.066406 25.832031 16.640625 25.453125 15.964844 C 24.808594 14.8125 24.003906 13.960938 22.609375 12.964844 C 21.542969 12.207031 20.804688 11.859375 20.015625 11.742188 C 19.914062 11.726562 19.765625 11.703125 19.691406 11.691406 C 19.613281 11.675781 19.488281 11.65625 19.410156 11.644531 C 19.195312 11.613281 17.761719 11.585938 17.589844 11.609375 M 21.125 16.164062 C 19.875 16.257812 19.609375 16.289062 16.703125 16.675781 C 16.027344 16.765625 15.851562 16.800781 15.566406 16.910156 C 14.964844 17.136719 14.875 17.382812 14.875 18.804688 C 14.875 19.777344 14.917969 20.136719 15.039062 20.15625 C 15.246094 20.183594 15.238281 20.230469 15.25 19.246094 C 15.261719 18.242188 15.339844 17.417969 15.421875 17.394531 C 15.574219 17.351562 16.210938 17.273438 18.046875 17.066406 C 18.617188 17 19.148438 16.9375 19.226562 16.929688 C 20.003906 16.832031 20.28125 16.789062 20.796875 16.6875 C 21.125 16.625 21.53125 16.527344 21.699219 16.472656 C 21.964844 16.382812 22.007812 16.355469 22.007812 16.253906 C 22.007812 16.152344 21.988281 16.140625 21.796875 16.136719 C 21.683594 16.132812 21.382812 16.144531 21.125 16.164062 M 22.5625 16.40625 C 22.464844 16.640625 22.410156 17.027344 22.304688 18.15625 C 22.25 18.730469 22.191406 19.367188 22.171875 19.570312 C 22.136719 19.945312 22.167969 20.101562 22.28125 20.101562 C 22.386719 20.101562 22.441406 19.992188 22.535156 19.609375 C 22.636719 19.199219 22.65625 19.011719 22.722656 17.761719 C 22.75 17.277344 22.78125 16.769531 22.792969 16.632812 C 22.800781 16.496094 22.796875 16.355469 22.785156 16.320312 C 22.742188 16.207031 22.628906 16.253906 22.5625 16.40625 M 5.464844 16.796875 C 5.261719 16.839844 5.242188 16.941406 5.144531 18.503906 C 5.113281 19 5.023438 19.761719 4.914062 20.480469 C 4.65625 22.148438 4.644531 22.3125 4.628906 24.457031 C 4.609375 26.746094 4.648438 27.648438 4.824219 28.878906 C 4.902344 29.429688 4.984375 29.640625 5.207031 29.847656 C 5.332031 29.96875 5.363281 29.980469 5.570312 29.949219 C 5.929688 29.894531 6.441406 29.714844 6.617188 29.578125 C 6.835938 29.414062 7.007812 29.042969 7.089844 28.566406 C 7.179688 28.066406 7.175781 27.859375 7.070312 27.230469 C 7.019531 26.941406 6.96875 26.558594 6.953125 26.378906 C 6.886719 25.554688 6.832031 25.046875 6.769531 24.621094 C 6.695312 24.125 6.636719 23.570312 6.554688 22.535156 C 6.523438 22.175781 6.460938 21.675781 6.414062 21.421875 C 6.363281 21.167969 6.304688 20.574219 6.28125 20.101562 C 6.253906 19.632812 6.195312 18.996094 6.144531 18.6875 C 6.09375 18.382812 6.042969 17.996094 6.027344 17.832031 C 5.957031 16.886719 5.867188 16.71875 5.464844 16.796875 M 5.566406 17.042969 C 5.554688 17.082031 5.53125 17.71875 5.519531 18.457031 C 5.503906 19.195312 5.480469 19.894531 5.46875 20.007812 C 5.4375 20.28125 5.214844 23.710938 5.144531 24.945312 C 5.136719 25.148438 5.109375 25.605469 5.089844 25.960938 C 5.066406 26.320312 5.050781 27.019531 5.050781 27.515625 C 5.050781 28.578125 5.109375 28.847656 5.40625 29.144531 C 5.621094 29.359375 5.847656 29.382812 6.09375 29.21875 C 6.472656 28.964844 6.578125 28.496094 6.539062 27.238281 C 6.527344 26.738281 6.492188 26.144531 6.464844 25.917969 C 6.4375 25.6875 6.40625 25.425781 6.394531 25.335938 C 6.382812 25.25 6.339844 24.800781 6.300781 24.34375 C 6.257812 23.882812 6.183594 23.289062 6.132812 23.023438 C 6 22.320312 5.960938 21.890625 5.9375 20.976562 C 5.917969 20.179688 5.878906 19.566406 5.742188 17.953125 C 5.675781 17.15625 5.621094 16.878906 5.566406 17.042969 M 32.011719 18.566406 C 31.847656 18.601562 31.785156 18.757812 31.71875 19.300781 C 31.667969 19.71875 31.6875 21.148438 31.757812 22.023438 C 31.84375 23.046875 31.824219 25.53125 31.730469 26.285156 C 31.5625 27.664062 31.585938 28.578125 31.828125 29.855469 C 31.90625 30.277344 32.039062 30.445312 32.332031 30.5 C 32.59375 30.546875 32.769531 30.421875 32.949219 30.0625 C 33.222656 29.519531 33.3125 28.914062 33.308594 27.675781 C 33.304688 27.257812 33.074219 25.15625 32.863281 23.691406 C 32.746094 22.84375 32.726562 22.582031 32.726562 21.644531 C 32.722656 21.054688 32.734375 20.550781 32.746094 20.53125 C 32.773438 20.484375 32.695312 19.457031 32.636719 19.082031 C 32.609375 18.917969 32.558594 18.746094 32.527344 18.703125 C 32.472656 18.628906 32.253906 18.519531 32.183594 18.53125 C 32.167969 18.535156 32.089844 18.550781 32.011719 18.566406 M 32.128906 18.875 C 32.097656 18.910156 32.054688 19.105469 32.03125 19.300781 C 31.972656 19.808594 31.976562 22.105469 32.035156 23.042969 C 32.066406 23.503906 32.070312 24.089844 32.050781 24.457031 C 32.003906 25.25 32.003906 28.71875 32.046875 29.1875 C 32.085938 29.632812 32.210938 30.105469 32.320312 30.21875 C 32.394531 30.304688 32.40625 30.304688 32.519531 30.230469 C 32.683594 30.125 32.875 29.730469 32.949219 29.34375 C 32.980469 29.167969 33.019531 28.644531 33.035156 28.1875 C 33.070312 27.175781 32.945312 25.914062 32.683594 24.574219 C 32.640625 24.359375 32.472656 23.246094 32.347656 22.359375 C 32.308594 22.082031 32.3125 21.882812 32.355469 21.507812 C 32.429688 20.921875 32.429688 20.128906 32.359375 19.480469 C 32.285156 18.769531 32.261719 18.714844 32.128906 18.875 M 20.429688 20.289062 C 19.792969 20.363281 19.105469 20.421875 18.902344 20.425781 C 18.515625 20.425781 17.726562 20.492188 17.210938 20.566406 C 17.046875 20.589844 16.710938 20.632812 16.46875 20.664062 C 15.769531 20.75 15.566406 20.804688 15.566406 20.914062 C 15.566406 20.976562 15.59375 21.003906 15.660156 20.996094 C 15.710938 20.988281 16.117188 20.964844 16.5625 20.9375 C 18.550781 20.824219 19.40625 20.742188 21.136719 20.492188 C 21.714844 20.410156 21.855469 20.363281 21.835938 20.253906 C 21.8125 20.136719 21.734375 20.140625 20.429688 20.289062 M 8.90625 23.050781 C 8.847656 23.105469 8.871094 23.683594 8.9375 23.925781 C 9.136719 24.636719 9.476562 24.992188 10.238281 25.269531 C 10.570312 25.390625 10.890625 25.628906 11.207031 25.984375 C 11.472656 26.285156 11.792969 26.8125 11.792969 26.949219 C 11.792969 27.078125 12.074219 27.511719 12.261719 27.671875 C 12.484375 27.863281 12.820312 28.027344 13.222656 28.136719 C 13.382812 28.179688 13.605469 28.257812 13.71875 28.304688 C 13.898438 28.382812 13.925781 28.382812 13.992188 28.320312 C 14.03125 28.28125 14.0625 28.234375 14.0625 28.214844 C 14.0625 28.105469 13.871094 27.96875 13.480469 27.796875 C 12.472656 27.351562 12.363281 27.246094 11.941406 26.308594 C 11.609375 25.574219 10.847656 24.886719 10.105469 24.660156 C 9.773438 24.554688 9.683594 24.449219 9.4375 23.855469 C 9.339844 23.613281 9.21875 23.332031 9.167969 23.230469 C 9.085938 23.054688 8.976562 22.980469 8.90625 23.050781 " fill-opacity="1" fill-rule="evenodd"/></g></svg>