<svg xmlns="http://www.w3.org/2000/svg" xmlns:xlink="http://www.w3.org/1999/xlink" width="48" zoomAndPan="magnify" viewBox="0 0 36 36.000001" height="48" preserveAspectRatio="xMidYMid meet" version="1.0"><defs><clipPath id="1167144ae8"><path d="M 8 2.207031 L 29 2.207031 L 29 31.398438 L 8 31.398438 Z M 8 2.207031 " clip-rule="nonzero"/></clipPath><clipPath id="fdb58e0bf0"><path d="M 30 25 L 31.582031 25 L 31.582031 27 L 30 27 Z M 30 25 " clip-rule="nonzero"/></clipPath><clipPath id="77290c0d26"><path d="M 4.582031 23 L 6 23 L 6 25 L 4.582031 25 Z M 4.582031 23 " clip-rule="nonzero"/></clipPath></defs><g clip-path="url(#1167144ae8)"><path fill="#4a5979" d="M 28.023438 19.199219 C 27.660156 18.132812 27.113281 17.132812 26.425781 16.242188 C 25.734375 15.34375 24.910156 14.558594 23.988281 13.90625 C 23.066406 13.253906 22.046875 12.742188 20.976562 12.402344 C 20.738281 12.328125 20.5 12.261719 20.257812 12.207031 C 20.234375 11.976562 20.210938 11.75 20.1875 11.523438 C 20.164062 11.292969 20.164062 11.050781 20.097656 10.828125 C 20.035156 10.617188 19.894531 10.460938 19.691406 10.382812 C 19.519531 10.320312 19.324219 10.316406 19.144531 10.328125 C 18.800781 10.347656 18.457031 10.375 18.113281 10.398438 C 18.042969 8.332031 17.972656 6.265625 17.902344 4.199219 C 17.882812 3.613281 17.863281 3.023438 17.84375 2.4375 C 17.835938 2.214844 17.488281 2.214844 17.496094 2.4375 C 17.566406 4.535156 17.636719 6.632812 17.710938 8.730469 C 17.730469 9.292969 17.75 9.859375 17.769531 10.421875 C 17.734375 10.425781 17.699219 10.425781 17.664062 10.429688 C 17.410156 10.449219 17.15625 10.464844 16.90625 10.480469 C 16.789062 10.488281 16.675781 10.496094 16.5625 10.503906 C 16.445312 10.515625 16.335938 10.535156 16.253906 10.625 C 16.160156 10.726562 16.171875 10.867188 16.171875 10.996094 C 16.171875 11.132812 16.171875 11.269531 16.171875 11.40625 C 16.175781 11.652344 16.179688 11.894531 16.183594 12.140625 C 16.136719 12.152344 16.089844 12.160156 16.042969 12.171875 C 14.726562 12.480469 13.484375 13.082031 12.414062 13.90625 C 11.6875 14.464844 11.039062 15.117188 10.5 15.859375 C 10.289062 16.148438 10.09375 16.453125 9.921875 16.765625 C 9.871094 16.800781 9.839844 16.851562 9.839844 16.910156 C 9.632812 17.296875 9.453125 17.699219 9.304688 18.109375 C 9.015625 18.898438 8.839844 19.722656 8.765625 20.554688 C 8.691406 21.382812 8.722656 22.214844 8.847656 23.035156 C 8.972656 23.851562 9.195312 24.648438 9.511719 25.410156 C 9.828125 26.183594 10.230469 26.914062 10.726562 27.585938 C 11.21875 28.257812 11.792969 28.871094 12.441406 29.394531 C 13.113281 29.933594 13.855469 30.378906 14.648438 30.714844 C 15.488281 31.066406 16.375 31.289062 17.277344 31.394531 C 18.367188 31.519531 19.476562 31.457031 20.546875 31.230469 C 21.601562 31.007812 22.621094 30.617188 23.558594 30.085938 C 24.355469 29.632812 25.09375 29.074219 25.746094 28.425781 C 25.769531 28.410156 25.789062 28.390625 25.800781 28.371094 C 25.875 28.292969 25.953125 28.214844 26.027344 28.136719 C 26.734375 27.375 27.324219 26.5 27.746094 25.550781 C 28.15625 24.621094 28.410156 23.632812 28.480469 22.621094 C 28.5 22.578125 28.503906 22.53125 28.488281 22.484375 C 28.546875 21.375 28.378906 20.25 28.023438 19.199219 Z M 27.214844 18.242188 C 27.234375 18.257812 27.257812 18.273438 27.277344 18.28125 C 27.648438 19.054688 27.914062 19.878906 28.050781 20.722656 C 27.679688 20.453125 27.300781 20.195312 26.910156 19.957031 C 26.898438 19.714844 26.886719 19.476562 26.867188 19.238281 C 26.828125 18.761719 26.773438 18.289062 26.699219 17.816406 C 26.777344 17.875 26.859375 17.933594 26.933594 17.996094 C 27.03125 18.074219 27.125 18.15625 27.214844 18.242188 Z M 26.875 17.519531 C 26.792969 17.460938 26.707031 17.40625 26.617188 17.351562 C 26.597656 17.238281 26.574219 17.125 26.550781 17.011719 C 26.664062 17.175781 26.773438 17.347656 26.875 17.519531 Z M 19.726562 13.308594 C 20.019531 14.035156 20.265625 14.78125 20.460938 15.539062 C 19.535156 15.425781 18.601562 15.367188 17.667969 15.367188 C 17.363281 15.367188 17.058594 15.375 16.753906 15.386719 C 16.925781 14.667969 17.15625 13.960938 17.457031 13.28125 C 18.210938 13.242188 18.972656 13.25 19.726562 13.308594 Z M 17.621094 12.925781 C 17.667969 12.832031 17.714844 12.742188 17.761719 12.648438 C 17.824219 12.527344 17.890625 12.40625 17.957031 12.289062 C 18.414062 12.285156 18.867188 12.3125 19.320312 12.378906 C 19.320312 12.382812 19.320312 12.386719 19.324219 12.390625 C 19.414062 12.578125 19.496094 12.765625 19.578125 12.953125 C 19.496094 12.949219 19.410156 12.941406 19.328125 12.9375 C 18.761719 12.910156 18.191406 12.90625 17.621094 12.925781 Z M 17.175781 15.71875 C 18.304688 15.695312 19.433594 15.753906 20.550781 15.898438 C 20.683594 16.449219 20.792969 17.007812 20.882812 17.566406 C 19.6875 17.320312 18.472656 17.179688 17.253906 17.160156 C 16.984375 17.152344 16.714844 17.15625 16.441406 17.164062 C 16.480469 16.832031 16.527344 16.503906 16.589844 16.175781 C 16.613281 16.03125 16.644531 15.882812 16.675781 15.738281 C 16.84375 15.730469 17.007812 15.726562 17.175781 15.71875 Z M 16.796875 17.503906 C 18.078125 17.496094 19.359375 17.613281 20.617188 17.863281 C 20.722656 17.886719 20.828125 17.910156 20.9375 17.933594 C 20.992188 18.332031 21.039062 18.734375 21.074219 19.136719 C 21.085938 19.25 21.09375 19.363281 21.101562 19.472656 C 21.0625 19.464844 21.023438 19.457031 20.984375 19.449219 C 19.660156 19.195312 18.3125 19.078125 16.964844 19.113281 C 16.75 19.117188 16.53125 19.128906 16.316406 19.140625 C 16.328125 18.597656 16.355469 18.050781 16.40625 17.507812 C 16.535156 17.507812 16.667969 17.503906 16.796875 17.503906 Z M 21.242188 17.644531 C 21.15625 17.085938 21.054688 16.53125 20.925781 15.980469 C 20.925781 15.96875 20.921875 15.960938 20.917969 15.949219 C 21.835938 16.085938 22.746094 16.277344 23.636719 16.523438 C 23.652344 16.617188 23.667969 16.710938 23.683594 16.800781 C 23.765625 17.351562 23.832031 17.902344 23.882812 18.453125 C 23.023438 18.121094 22.140625 17.851562 21.242188 17.644531 Z M 23.914062 18.835938 C 23.945312 19.238281 23.96875 19.640625 23.984375 20.042969 C 23.984375 20.117188 23.988281 20.195312 23.988281 20.269531 C 23.160156 19.976562 22.3125 19.730469 21.453125 19.546875 C 21.453125 19.539062 21.453125 19.53125 21.453125 19.523438 C 21.414062 19.019531 21.363281 18.515625 21.292969 18.011719 C 22.1875 18.222656 23.0625 18.496094 23.914062 18.835938 Z M 21.167969 22.746094 C 21.15625 23.117188 21.140625 23.484375 21.117188 23.855469 C 21.007812 23.847656 20.894531 23.839844 20.785156 23.832031 C 19.457031 23.742188 18.132812 23.644531 16.808594 23.535156 C 16.722656 23.527344 16.640625 23.519531 16.554688 23.511719 C 16.429688 22.320312 16.332031 21.121094 16.316406 19.921875 C 16.3125 19.777344 16.3125 19.632812 16.3125 19.488281 C 16.375 19.484375 16.441406 19.480469 16.503906 19.476562 C 17.824219 19.410156 19.152344 19.488281 20.453125 19.707031 C 20.679688 19.742188 20.902344 19.785156 21.125 19.832031 C 21.1875 20.800781 21.199219 21.773438 21.167969 22.746094 Z M 16.09375 17.175781 C 15.230469 17.210938 14.367188 17.308594 13.515625 17.460938 C 13.5625 17.222656 13.613281 16.980469 13.667969 16.742188 C 13.722656 16.511719 13.78125 16.285156 13.839844 16.054688 C 14.660156 15.910156 15.488281 15.808594 16.320312 15.757812 C 16.222656 16.226562 16.148438 16.699219 16.09375 17.175781 Z M 16.058594 17.523438 C 16.007812 18.070312 15.980469 18.617188 15.972656 19.164062 C 15.039062 19.242188 14.113281 19.390625 13.207031 19.613281 C 13.261719 19.015625 13.34375 18.417969 13.449219 17.824219 C 14.308594 17.660156 15.183594 17.5625 16.058594 17.523438 Z M 15.96875 19.511719 C 15.964844 20.785156 16.058594 22.054688 16.1875 23.320312 C 16.195312 23.375 16.199219 23.429688 16.207031 23.484375 C 15.191406 23.398438 14.171875 23.3125 13.160156 23.1875 C 13.097656 22.242188 13.09375 21.292969 13.148438 20.347656 C 13.15625 20.222656 13.167969 20.101562 13.175781 19.976562 C 14.089844 19.746094 15.027344 19.589844 15.96875 19.511719 Z M 16.242188 23.832031 C 16.324219 24.621094 16.410156 25.410156 16.523438 26.191406 C 15.496094 26.050781 14.472656 25.855469 13.460938 25.605469 C 13.367188 25.078125 13.289062 24.546875 13.230469 24.015625 C 13.214844 23.855469 13.199219 23.699219 13.1875 23.539062 C 14.203125 23.660156 15.222656 23.746094 16.242188 23.832031 Z M 16.382812 26.519531 C 16.445312 26.527344 16.511719 26.539062 16.578125 26.546875 C 16.613281 26.769531 16.648438 26.996094 16.6875 27.21875 C 16.765625 27.648438 16.859375 28.078125 16.96875 28.503906 C 16.015625 28.390625 15.066406 28.226562 14.125 28.011719 C 14.101562 28.007812 14.074219 28 14.050781 27.996094 C 14.003906 27.855469 13.960938 27.714844 13.921875 27.574219 C 13.769531 27.046875 13.640625 26.515625 13.535156 25.976562 C 14.472656 26.203125 15.425781 26.386719 16.382812 26.519531 Z M 16.59375 23.863281 C 17.824219 23.964844 19.058594 24.058594 20.292969 24.144531 C 20.558594 24.164062 20.828125 24.183594 21.097656 24.203125 C 21.046875 24.957031 20.976562 25.707031 20.894531 26.457031 C 20.714844 26.460938 20.535156 26.460938 20.355469 26.460938 C 19.195312 26.457031 18.03125 26.382812 16.878906 26.238281 C 16.765625 25.449219 16.679688 24.652344 16.59375 23.863281 Z M 21.167969 27.09375 C 21.179688 26.992188 21.191406 26.894531 21.203125 26.796875 C 21.964844 26.777344 22.730469 26.730469 23.488281 26.652344 C 23.492188 26.652344 23.496094 26.652344 23.496094 26.652344 C 23.382812 27.277344 23.25 27.902344 23.097656 28.519531 C 22.390625 28.601562 21.679688 28.652344 20.96875 28.675781 C 21.039062 28.148438 21.109375 27.621094 21.167969 27.09375 Z M 21.242188 26.453125 C 21.324219 25.710938 21.390625 24.96875 21.441406 24.226562 C 22.238281 24.277344 23.035156 24.320312 23.832031 24.324219 C 23.761719 24.984375 23.671875 25.644531 23.558594 26.296875 C 22.789062 26.378906 22.015625 26.429688 21.242188 26.453125 Z M 21.460938 23.878906 C 21.476562 23.660156 21.488281 23.441406 21.496094 23.222656 C 21.542969 22.117188 21.542969 21.011719 21.476562 19.90625 C 22.332031 20.09375 23.175781 20.34375 23.996094 20.640625 C 24.011719 21.53125 23.988281 22.421875 23.921875 23.308594 C 23.90625 23.53125 23.886719 23.753906 23.867188 23.976562 C 23.066406 23.976562 22.261719 23.933594 21.460938 23.878906 Z M 24.179688 24.324219 C 24.878906 24.3125 25.582031 24.265625 26.273438 24.148438 C 26.160156 24.757812 26.019531 25.363281 25.847656 25.960938 C 25.207031 26.082031 24.5625 26.179688 23.917969 26.257812 C 24.023438 25.617188 24.113281 24.96875 24.179688 24.324219 Z M 24.476562 23.972656 C 24.386719 23.972656 24.300781 23.972656 24.214844 23.976562 C 24.222656 23.894531 24.230469 23.816406 24.234375 23.734375 C 24.320312 22.75 24.359375 21.757812 24.347656 20.769531 C 25.097656 21.054688 25.835938 21.382812 26.554688 21.75 C 26.519531 22.433594 26.445312 23.109375 26.335938 23.785156 C 25.722656 23.894531 25.097656 23.953125 24.476562 23.972656 Z M 24.820312 20.582031 C 24.660156 20.519531 24.5 20.457031 24.339844 20.398438 C 24.328125 19.925781 24.304688 19.453125 24.269531 18.980469 C 24.273438 18.984375 24.28125 18.984375 24.285156 18.988281 C 25.074219 19.320312 25.839844 19.710938 26.570312 20.152344 C 26.585938 20.558594 26.582031 20.96875 26.570312 21.375 C 25.996094 21.085938 25.414062 20.820312 24.820312 20.582031 Z M 26.554688 19.738281 C 26 19.417969 25.433594 19.121094 24.851562 18.859375 C 24.648438 18.765625 24.445312 18.679688 24.238281 18.597656 C 24.199219 18.113281 24.144531 17.628906 24.078125 17.144531 C 24.054688 16.972656 24.03125 16.800781 24.003906 16.628906 C 24.054688 16.644531 24.109375 16.660156 24.160156 16.675781 C 24.890625 16.898438 25.636719 17.167969 26.304688 17.5625 C 26.429688 18.28125 26.511719 19.007812 26.554688 19.738281 Z M 23.757812 14.167969 C 24.238281 14.503906 24.691406 14.878906 25.113281 15.285156 C 25.476562 15.640625 25.8125 16.015625 26.125 16.414062 C 26.097656 16.449219 26.085938 16.496094 26.097656 16.550781 C 26.144531 16.742188 26.183594 16.933594 26.222656 17.125 C 25.730469 16.863281 25.207031 16.65625 24.683594 16.480469 C 24.4375 16.398438 24.191406 16.320312 23.941406 16.25 C 23.816406 15.511719 23.660156 14.785156 23.476562 14.0625 C 23.570312 14.09375 23.664062 14.132812 23.757812 14.167969 Z M 23.574219 16.144531 C 22.84375 15.949219 22.101562 15.789062 21.359375 15.667969 C 21.183594 15.640625 21.007812 15.613281 20.832031 15.589844 C 20.640625 14.824219 20.398438 14.074219 20.113281 13.339844 C 20.542969 13.382812 20.972656 13.441406 21.398438 13.519531 C 21.96875 13.621094 22.53125 13.753906 23.082031 13.929688 C 23.277344 14.660156 23.441406 15.398438 23.574219 16.144531 Z M 22.453125 13.382812 C 22.457031 13.386719 22.464844 13.390625 22.472656 13.394531 C 21.652344 13.183594 20.808594 13.054688 19.964844 12.980469 C 19.914062 12.859375 19.863281 12.734375 19.804688 12.613281 C 19.78125 12.558594 19.753906 12.503906 19.730469 12.445312 C 20.675781 12.625 21.59375 12.945312 22.453125 13.382812 Z M 16.519531 10.855469 C 16.53125 10.855469 16.546875 10.851562 16.550781 10.851562 C 16.667969 10.839844 16.789062 10.835938 16.90625 10.828125 C 17.125 10.8125 17.339844 10.796875 17.558594 10.785156 C 18.007812 10.753906 18.453125 10.722656 18.902344 10.691406 C 19.148438 10.675781 19.617188 10.574219 19.746094 10.871094 C 19.785156 10.957031 19.796875 11.058594 19.804688 11.148438 C 19.816406 11.273438 19.828125 11.398438 19.84375 11.523438 C 19.863281 11.722656 19.882812 11.925781 19.902344 12.128906 C 19.171875 11.984375 18.425781 11.917969 17.679688 11.949219 C 17.292969 11.96875 16.910156 12.007812 16.527344 12.074219 C 16.523438 11.691406 16.515625 11.308594 16.515625 10.925781 C 16.515625 10.90625 16.523438 10.875 16.519531 10.855469 Z M 16.511719 10.859375 C 16.503906 10.859375 16.503906 10.859375 16.511719 10.859375 Z M 16.511719 10.859375 C 16.507812 10.867188 16.480469 10.863281 16.511719 10.859375 Z M 14.785156 13.261719 C 14.839844 13.128906 14.894531 13 14.953125 12.867188 C 15.339844 12.71875 15.734375 12.597656 16.136719 12.503906 C 16.601562 12.398438 17.078125 12.332031 17.554688 12.304688 C 17.441406 12.515625 17.332031 12.730469 17.230469 12.945312 C 16.40625 12.996094 15.582031 13.105469 14.773438 13.285156 C 14.777344 13.277344 14.78125 13.269531 14.785156 13.261719 Z M 16.589844 13.347656 C 16.75 13.332031 16.910156 13.320312 17.070312 13.304688 C 16.785156 13.984375 16.558594 14.691406 16.394531 15.40625 C 15.585938 15.457031 14.78125 15.546875 13.984375 15.679688 C 13.96875 15.679688 13.953125 15.683594 13.941406 15.6875 C 14.132812 15.003906 14.359375 14.328125 14.621094 13.667969 C 15.269531 13.515625 15.933594 13.414062 16.589844 13.347656 Z M 14.285156 13.15625 C 14.355469 13.121094 14.425781 13.089844 14.5 13.054688 C 14.453125 13.164062 14.410156 13.273438 14.367188 13.378906 C 14.015625 13.46875 13.667969 13.570312 13.328125 13.6875 C 13.636719 13.492188 13.957031 13.3125 14.285156 13.15625 Z M 11.746094 15.082031 C 11.773438 15.007812 11.800781 14.933594 11.832031 14.855469 C 11.949219 14.746094 12.066406 14.636719 12.191406 14.53125 C 12.210938 14.53125 12.238281 14.523438 12.261719 14.511719 C 12.878906 14.195312 13.539062 13.953125 14.210938 13.769531 C 13.964844 14.421875 13.746094 15.082031 13.5625 15.753906 C 12.820312 15.890625 12.085938 16.070312 11.363281 16.28125 C 11.472656 15.875 11.597656 15.476562 11.746094 15.082031 Z M 13.464844 16.125 C 13.457031 16.152344 13.449219 16.179688 13.441406 16.207031 C 13.332031 16.644531 13.234375 17.085938 13.152344 17.53125 C 12.40625 17.679688 11.667969 17.878906 10.945312 18.121094 C 10.972656 17.984375 11 17.847656 11.027344 17.714844 C 11.097656 17.367188 11.171875 17.019531 11.257812 16.675781 C 11.984375 16.453125 12.71875 16.269531 13.464844 16.125 Z M 12.621094 20.128906 C 12.6875 20.109375 12.753906 20.089844 12.824219 20.070312 C 12.75 21.09375 12.742188 22.121094 12.8125 23.144531 C 12.03125 23.039062 11.253906 22.898438 10.496094 22.695312 C 10.5 22.089844 10.527344 21.480469 10.574219 20.878906 C 11.238281 20.582031 11.921875 20.332031 12.621094 20.128906 Z M 10.609375 20.480469 C 10.675781 19.820312 10.765625 19.164062 10.878906 18.511719 C 11.5625 18.273438 12.261719 18.074219 12.96875 17.921875 C 13.007812 17.910156 13.046875 17.90625 13.085938 17.898438 C 12.984375 18.496094 12.90625 19.097656 12.851562 19.703125 C 12.089844 19.910156 11.335938 20.167969 10.609375 20.480469 Z M 12.492188 23.445312 C 12.605469 23.460938 12.722656 23.476562 12.835938 23.492188 C 12.839844 23.53125 12.84375 23.570312 12.847656 23.609375 C 12.902344 24.246094 12.984375 24.878906 13.09375 25.511719 C 12.246094 25.289062 11.40625 25.027344 10.582031 24.730469 C 10.523438 24.222656 10.5 23.714844 10.496094 23.207031 C 10.492188 23.15625 10.492188 23.105469 10.492188 23.050781 C 11.148438 23.222656 11.820312 23.347656 12.492188 23.445312 Z M 11.238281 15.480469 C 11.140625 15.785156 11.050781 16.089844 10.972656 16.398438 C 10.792969 16.457031 10.613281 16.515625 10.433594 16.578125 C 10.675781 16.191406 10.941406 15.824219 11.238281 15.480469 Z M 10.144531 17.078125 C 10.148438 17.0625 10.15625 17.050781 10.164062 17.039062 C 10.398438 16.953125 10.636719 16.871094 10.875 16.792969 C 10.835938 16.964844 10.792969 17.136719 10.757812 17.308594 C 10.691406 17.621094 10.628906 17.9375 10.574219 18.25 C 10.242188 18.371094 9.917969 18.5 9.59375 18.636719 C 9.554688 18.652344 9.515625 18.671875 9.476562 18.6875 C 9.644531 18.128906 9.867188 17.59375 10.144531 17.078125 Z M 9.300781 19.347656 C 9.316406 19.273438 9.335938 19.195312 9.355469 19.121094 C 9.734375 18.945312 10.117188 18.789062 10.503906 18.644531 C 10.421875 19.15625 10.351562 19.675781 10.292969 20.191406 C 10.277344 20.34375 10.265625 20.492188 10.25 20.644531 C 9.914062 20.796875 9.582031 20.964844 9.257812 21.140625 C 9.195312 21.175781 9.136719 21.210938 9.074219 21.246094 C 9.085938 20.601562 9.160156 19.976562 9.300781 19.347656 Z M 9.074219 21.730469 C 9.074219 21.703125 9.074219 21.671875 9.074219 21.644531 C 9.445312 21.425781 9.828125 21.226562 10.21875 21.042969 C 10.179688 21.558594 10.15625 22.078125 10.148438 22.597656 C 9.914062 22.527344 9.679688 22.449219 9.449219 22.363281 C 9.332031 22.320312 9.21875 22.273438 9.101562 22.226562 C 9.089844 22.0625 9.078125 21.898438 9.074219 21.730469 Z M 9.5 24.351562 C 9.476562 24.265625 9.453125 24.179688 9.425781 24.09375 C 9.292969 23.597656 9.195312 23.109375 9.140625 22.613281 C 9.46875 22.742188 9.804688 22.855469 10.148438 22.957031 C 10.144531 23.503906 10.167969 24.050781 10.21875 24.597656 C 10.148438 24.570312 10.074219 24.542969 10.003906 24.515625 C 9.867188 24.460938 9.730469 24.410156 9.59375 24.355469 C 9.5625 24.34375 9.53125 24.34375 9.5 24.351562 Z M 10.324219 26.3125 C 10.042969 25.800781 9.8125 25.28125 9.625 24.738281 C 9.835938 24.820312 10.050781 24.902344 10.265625 24.980469 C 10.300781 25.269531 10.347656 25.554688 10.410156 25.839844 C 10.496094 26.246094 10.613281 26.652344 10.765625 27.039062 C 10.609375 26.804688 10.460938 26.5625 10.324219 26.3125 Z M 10.808594 26.027344 C 10.734375 25.726562 10.675781 25.421875 10.632812 25.113281 C 11.375 25.378906 12.128906 25.613281 12.894531 25.816406 C 12.984375 25.839844 13.074219 25.863281 13.164062 25.886719 C 13.253906 26.355469 13.359375 26.824219 13.484375 27.285156 C 13.539062 27.492188 13.59375 27.695312 13.65625 27.902344 C 12.828125 27.699219 12.011719 27.460938 11.203125 27.191406 C 11.039062 26.816406 10.90625 26.425781 10.808594 26.027344 Z M 13.601562 29.789062 C 13.023438 29.433594 12.5 29.023438 12.019531 28.550781 C 12.007812 28.53125 11.996094 28.507812 11.980469 28.488281 C 11.761719 28.21875 11.574219 27.929688 11.414062 27.625 C 12.191406 27.875 12.984375 28.097656 13.78125 28.285156 C 14.042969 29.058594 14.398438 29.804688 14.933594 30.429688 C 14.949219 30.445312 14.964844 30.460938 14.976562 30.476562 C 14.5 30.289062 14.042969 30.058594 13.601562 29.789062 Z M 15.910156 30.785156 C 15.777344 30.746094 15.640625 30.707031 15.507812 30.664062 C 15.535156 30.609375 15.527344 30.539062 15.46875 30.484375 C 14.859375 29.90625 14.464844 29.160156 14.179688 28.375 C 14.980469 28.554688 15.789062 28.699219 16.605469 28.804688 C 16.757812 28.828125 16.914062 28.84375 17.070312 28.863281 C 17.269531 29.546875 17.527344 30.214844 17.855469 30.851562 C 17.902344 30.933594 17.945312 31.019531 17.992188 31.101562 C 17.289062 31.074219 16.59375 30.96875 15.910156 30.785156 Z M 20.386719 30.386719 C 20.363281 30.546875 20.339844 30.703125 20.316406 30.863281 C 20.316406 30.882812 20.316406 30.902344 20.316406 30.925781 C 19.8125 31.023438 19.296875 31.085938 18.78125 31.105469 C 18.652344 31.109375 18.523438 31.109375 18.398438 31.109375 C 17.988281 30.414062 17.679688 29.671875 17.441406 28.902344 C 18.484375 29.007812 19.527344 29.050781 20.574219 29.035156 C 20.511719 29.484375 20.449219 29.9375 20.386719 30.386719 Z M 19.820312 28.691406 C 18.992188 28.683594 18.164062 28.632812 17.339844 28.546875 C 17.25 28.222656 17.171875 27.898438 17.105469 27.570312 C 17.039062 27.246094 16.984375 26.917969 16.933594 26.589844 C 17.929688 26.710938 18.929688 26.785156 19.933594 26.800781 C 20.242188 26.808594 20.546875 26.808594 20.855469 26.804688 C 20.785156 27.433594 20.703125 28.058594 20.621094 28.6875 C 20.355469 28.691406 20.085938 28.695312 19.820312 28.691406 Z M 22.777344 29.707031 C 22.742188 29.839844 22.703125 29.96875 22.664062 30.097656 C 22.65625 30.121094 22.65625 30.140625 22.65625 30.160156 C 22.402344 30.277344 22.144531 30.386719 21.886719 30.484375 C 21.488281 30.632812 21.078125 30.753906 20.667969 30.847656 C 20.753906 30.242188 20.839844 29.632812 20.921875 29.027344 C 21.410156 29.011719 21.894531 28.984375 22.378906 28.941406 C 22.585938 28.921875 22.796875 28.902344 23.007812 28.878906 C 22.933594 29.15625 22.859375 29.433594 22.777344 29.707031 Z M 24.773438 28.792969 C 24.761719 28.8125 24.757812 28.832031 24.753906 28.847656 C 24.695312 28.898438 24.636719 28.945312 24.574219 28.992188 C 24.105469 29.359375 23.597656 29.679688 23.066406 29.957031 C 23.175781 29.585938 23.277344 29.210938 23.375 28.835938 C 23.871094 28.773438 24.367188 28.699219 24.859375 28.609375 C 24.828125 28.671875 24.800781 28.734375 24.773438 28.792969 Z M 23.464844 28.476562 C 23.582031 27.992188 23.6875 27.503906 23.78125 27.011719 C 23.808594 26.878906 23.832031 26.746094 23.855469 26.609375 C 24.484375 26.539062 25.113281 26.445312 25.734375 26.332031 C 25.535156 26.976562 25.300781 27.609375 25.03125 28.226562 C 24.511719 28.324219 23.988281 28.40625 23.464844 28.476562 Z M 26.648438 26.808594 C 26.328125 27.277344 25.960938 27.714844 25.558594 28.121094 C 25.519531 28.128906 25.480469 28.136719 25.441406 28.144531 C 25.699219 27.53125 25.925781 26.898438 26.117188 26.261719 C 26.421875 26.199219 26.726562 26.136719 27.027344 26.066406 C 27.054688 26.0625 27.085938 26.054688 27.113281 26.046875 C 26.96875 26.308594 26.816406 26.5625 26.648438 26.808594 Z M 27.894531 24.082031 C 27.757812 24.621094 27.5625 25.144531 27.320312 25.644531 C 26.957031 25.730469 26.59375 25.8125 26.226562 25.886719 C 26.378906 25.339844 26.507812 24.785156 26.609375 24.222656 C 26.617188 24.175781 26.628906 24.128906 26.636719 24.082031 C 26.980469 24.007812 27.324219 23.917969 27.660156 23.808594 C 27.769531 23.769531 27.878906 23.730469 27.988281 23.6875 C 27.960938 23.820312 27.929688 23.953125 27.894531 24.082031 Z M 28.054688 23.3125 C 28.03125 23.308594 28.007812 23.308594 27.988281 23.320312 C 27.566406 23.484375 27.136719 23.613281 26.695312 23.710938 C 26.789062 23.121094 26.851562 22.523438 26.890625 21.925781 C 27.203125 22.09375 27.511719 22.265625 27.816406 22.441406 C 27.921875 22.503906 28.027344 22.570312 28.132812 22.632812 C 28.117188 22.859375 28.089844 23.085938 28.054688 23.3125 Z M 28.152344 22.242188 C 27.742188 21.996094 27.332031 21.765625 26.910156 21.546875 C 26.925781 21.15625 26.929688 20.761719 26.921875 20.371094 C 27.175781 20.53125 27.425781 20.699219 27.667969 20.871094 C 27.796875 20.964844 27.925781 21.054688 28.050781 21.152344 C 28.070312 21.164062 28.089844 21.171875 28.109375 21.175781 C 28.144531 21.527344 28.160156 21.886719 28.152344 22.242188 Z M 28.152344 22.242188 " fill-opacity="1" fill-rule="nonzero"/></g><path fill="#4a5979" d="M 12.574219 10.203125 C 12.480469 10.210938 12.402344 10.28125 12.402344 10.378906 L 12.402344 10.917969 C 12.402344 11.007812 12.480469 11.09375 12.574219 11.089844 C 12.667969 11.085938 12.75 11.015625 12.75 10.917969 L 12.75 10.378906 C 12.75 10.289062 12.667969 10.199219 12.574219 10.203125 Z M 12.574219 10.203125 " fill-opacity="1" fill-rule="nonzero"/><path fill="#4a5979" d="M 12.46875 11.726562 L 12.46875 12.332031 C 12.46875 12.421875 12.550781 12.507812 12.644531 12.503906 C 12.738281 12.5 12.816406 12.429688 12.816406 12.332031 L 12.816406 11.726562 C 12.816406 11.636719 12.734375 11.546875 12.644531 11.550781 C 12.546875 11.554688 12.46875 11.628906 12.46875 11.726562 Z M 12.46875 11.726562 " fill-opacity="1" fill-rule="nonzero"/><path fill="#4a5979" d="M 12.171875 11.628906 C 12.261719 11.628906 12.347656 11.550781 12.34375 11.457031 C 12.339844 11.363281 12.269531 11.28125 12.171875 11.28125 L 11.429688 11.28125 C 11.339844 11.28125 11.253906 11.363281 11.257812 11.457031 C 11.261719 11.550781 11.332031 11.628906 11.429688 11.628906 Z M 12.171875 11.628906 " fill-opacity="1" fill-rule="nonzero"/><path fill="#4a5979" d="M 13.15625 11.402344 C 13.222656 11.386719 13.285156 11.375 13.351562 11.363281 C 13.355469 11.363281 13.359375 11.363281 13.363281 11.363281 C 13.363281 11.363281 13.363281 11.363281 13.367188 11.363281 C 13.386719 11.359375 13.402344 11.359375 13.421875 11.355469 C 13.453125 11.351562 13.488281 11.351562 13.523438 11.347656 C 13.65625 11.34375 13.789062 11.347656 13.921875 11.367188 C 13.960938 11.371094 14.015625 11.34375 14.042969 11.316406 C 14.074219 11.285156 14.097656 11.234375 14.09375 11.191406 C 14.09375 11.148438 14.078125 11.101562 14.042969 11.070312 C 14.007812 11.035156 13.96875 11.027344 13.921875 11.019531 C 13.636719 10.980469 13.34375 11 13.0625 11.070312 C 12.976562 11.089844 12.914062 11.195312 12.941406 11.28125 C 12.972656 11.375 13.0625 11.425781 13.15625 11.402344 Z M 13.15625 11.402344 " fill-opacity="1" fill-rule="nonzero"/><path fill="#4a5979" d="M 26.523438 12.707031 C 26.617188 12.703125 26.695312 12.632812 26.695312 12.535156 L 26.695312 11.996094 C 26.695312 11.90625 26.617188 11.816406 26.523438 11.820312 C 26.429688 11.824219 26.347656 11.898438 26.347656 11.996094 L 26.347656 12.535156 C 26.347656 12.625 26.429688 12.710938 26.523438 12.707031 Z M 26.523438 12.707031 " fill-opacity="1" fill-rule="nonzero"/><path fill="#4a5979" d="M 26.050781 13.171875 C 26.09375 13.175781 26.144531 13.148438 26.171875 13.121094 C 26.203125 13.089844 26.226562 13.042969 26.222656 12.996094 C 26.222656 12.953125 26.207031 12.90625 26.171875 12.875 C 26.136719 12.84375 26.097656 12.828125 26.050781 12.824219 C 25.847656 12.800781 25.648438 12.78125 25.445312 12.757812 C 25.402344 12.753906 25.351562 12.78125 25.320312 12.808594 C 25.292969 12.839844 25.269531 12.886719 25.269531 12.929688 C 25.273438 12.976562 25.289062 13.023438 25.320312 13.054688 C 25.359375 13.085938 25.394531 13.097656 25.445312 13.105469 C 25.648438 13.125 25.847656 13.148438 26.050781 13.171875 Z M 26.050781 13.171875 " fill-opacity="1" fill-rule="nonzero"/><path fill="#4a5979" d="M 27.464844 13.246094 C 27.554688 13.246094 27.640625 13.167969 27.636719 13.074219 C 27.632812 12.980469 27.5625 12.898438 27.464844 12.898438 L 26.925781 12.898438 C 26.835938 12.898438 26.75 12.980469 26.753906 13.074219 C 26.757812 13.167969 26.828125 13.246094 26.925781 13.246094 Z M 27.464844 13.246094 " fill-opacity="1" fill-rule="nonzero"/><path fill="#4a5979" d="M 26.347656 14.015625 C 26.347656 14.105469 26.429688 14.195312 26.523438 14.1875 C 26.617188 14.183594 26.695312 14.113281 26.695312 14.015625 L 26.695312 13.542969 C 26.695312 13.453125 26.617188 13.367188 26.523438 13.371094 C 26.429688 13.375 26.347656 13.449219 26.347656 13.542969 Z M 26.347656 14.015625 " fill-opacity="1" fill-rule="nonzero"/><path fill="#4a5979" d="M 30.121094 25.375 L 30.121094 25.382812 C 30.117188 25.40625 30.113281 25.433594 30.105469 25.460938 C 30.09375 25.515625 30.078125 25.574219 30.0625 25.625 C 30.035156 25.714844 30.09375 25.820312 30.183594 25.839844 C 30.277344 25.859375 30.367188 25.8125 30.398438 25.71875 C 30.46875 25.488281 30.496094 25.238281 30.464844 25 C 30.460938 24.949219 30.449219 24.910156 30.414062 24.875 C 30.386719 24.847656 30.335938 24.824219 30.292969 24.824219 C 30.207031 24.828125 30.109375 24.902344 30.121094 25 C 30.132812 25.109375 30.136719 25.222656 30.125 25.332031 C 30.125 25.347656 30.121094 25.363281 30.121094 25.375 Z M 30.121094 25.375 " fill-opacity="1" fill-rule="nonzero"/><path fill="#4a5979" d="M 30.289062 27.527344 C 30.390625 27.523438 30.449219 27.453125 30.460938 27.355469 C 30.496094 27.070312 30.480469 26.777344 30.421875 26.496094 C 30.402344 26.40625 30.292969 26.347656 30.207031 26.375 C 30.113281 26.40625 30.066406 26.492188 30.089844 26.589844 C 30.09375 26.621094 30.101562 26.65625 30.105469 26.6875 C 30.109375 26.707031 30.113281 26.726562 30.117188 26.742188 C 30.117188 26.746094 30.117188 26.746094 30.117188 26.75 C 30.117188 26.75 30.117188 26.753906 30.117188 26.757812 C 30.125 26.824219 30.128906 26.890625 30.132812 26.957031 C 30.136719 27.089844 30.132812 27.222656 30.117188 27.355469 C 30.105469 27.445312 30.203125 27.53125 30.289062 27.527344 Z M 30.289062 27.527344 " fill-opacity="1" fill-rule="nonzero"/><path fill="#4a5979" d="M 28.835938 26.046875 C 28.75 26.078125 28.683594 26.164062 28.714844 26.261719 C 28.742188 26.34375 28.835938 26.417969 28.925781 26.382812 C 28.988281 26.355469 29.054688 26.335938 29.117188 26.324219 C 29.136719 26.320312 29.15625 26.316406 29.175781 26.3125 C 29.175781 26.3125 29.179688 26.3125 29.179688 26.3125 C 29.183594 26.3125 29.183594 26.3125 29.1875 26.3125 C 29.21875 26.308594 29.253906 26.308594 29.285156 26.304688 C 29.320312 26.304688 29.351562 26.304688 29.386719 26.308594 C 29.398438 26.308594 29.414062 26.308594 29.429688 26.3125 C 29.4375 26.3125 29.445312 26.3125 29.453125 26.3125 C 29.519531 26.324219 29.585938 26.339844 29.648438 26.363281 C 29.734375 26.390625 29.839844 26.328125 29.859375 26.242188 C 29.882812 26.144531 29.832031 26.058594 29.738281 26.027344 C 29.449219 25.929688 29.121094 25.9375 28.835938 26.046875 Z M 28.835938 26.046875 " fill-opacity="1" fill-rule="nonzero"/><g clip-path="url(#fdb58e0bf0)"><path fill="#4a5979" d="M 30.675781 26.308594 C 30.757812 26.28125 30.835938 26.261719 30.921875 26.25 C 31.027344 26.238281 31.132812 26.238281 31.238281 26.25 C 31.277344 26.253906 31.332031 26.226562 31.359375 26.199219 C 31.390625 26.167969 31.414062 26.121094 31.410156 26.078125 C 31.410156 26.03125 31.394531 25.984375 31.359375 25.953125 C 31.324219 25.921875 31.285156 25.910156 31.238281 25.902344 C 31.019531 25.875 30.792969 25.902344 30.585938 25.972656 C 30.5 26.003906 30.433594 26.09375 30.464844 26.1875 C 30.492188 26.273438 30.585938 26.339844 30.675781 26.308594 Z M 30.675781 26.308594 " fill-opacity="1" fill-rule="nonzero"/></g><path fill="#4a5979" d="M 6.960938 23.515625 C 6.960938 23.433594 6.964844 23.351562 6.972656 23.269531 C 6.976562 23.25 6.976562 23.234375 6.980469 23.214844 C 6.980469 23.214844 6.980469 23.195312 6.984375 23.1875 C 6.988281 23.148438 6.996094 23.109375 7.003906 23.070312 C 7.03125 22.914062 7.078125 22.761719 7.132812 22.613281 C 7.167969 22.527344 7.097656 22.417969 7.015625 22.398438 C 6.914062 22.378906 6.835938 22.429688 6.800781 22.519531 C 6.679688 22.835938 6.617188 23.175781 6.617188 23.515625 C 6.617188 23.605469 6.695312 23.695312 6.789062 23.6875 C 6.882812 23.683594 6.960938 23.613281 6.960938 23.515625 Z M 6.960938 23.515625 " fill-opacity="1" fill-rule="nonzero"/><path fill="#4a5979" d="M 6.644531 24.355469 C 6.550781 24.359375 6.472656 24.429688 6.472656 24.527344 L 6.472656 25.671875 C 6.472656 25.761719 6.554688 25.847656 6.644531 25.84375 C 6.738281 25.839844 6.820312 25.769531 6.820312 25.671875 L 6.820312 24.527344 C 6.820312 24.4375 6.738281 24.347656 6.644531 24.355469 Z M 6.644531 24.355469 " fill-opacity="1" fill-rule="nonzero"/><path fill="#4a5979" d="M 7.453125 23.949219 C 7.363281 23.949219 7.277344 24.027344 7.28125 24.121094 C 7.285156 24.214844 7.359375 24.296875 7.453125 24.296875 L 8.398438 24.296875 C 8.488281 24.296875 8.574219 24.214844 8.570312 24.121094 C 8.566406 24.027344 8.496094 23.949219 8.398438 23.949219 Z M 7.453125 23.949219 " fill-opacity="1" fill-rule="nonzero"/><g clip-path="url(#77290c0d26)"><path fill="#4a5979" d="M 4.761719 23.816406 C 4.667969 23.816406 4.582031 23.894531 4.585938 23.988281 C 4.589844 24.082031 4.664062 24.160156 4.761719 24.160156 L 5.636719 24.160156 C 5.726562 24.160156 5.8125 24.082031 5.808594 23.988281 C 5.804688 23.894531 5.734375 23.816406 5.636719 23.816406 Z M 4.761719 23.816406 " fill-opacity="1" fill-rule="nonzero"/></g></svg>